%TF.GenerationSoftware,KiCad,Pcbnew,9.0.1*%
%TF.CreationDate,2025-05-12T17:56:43+01:00*%
%TF.ProjectId,SparkFun_GNSS_Flex_Breakout_panelized,53706172-6b46-4756-9e5f-474e53535f46,v10*%
%TF.SameCoordinates,Original*%
%TF.FileFunction,Soldermask,Bot*%
%TF.FilePolarity,Negative*%
%FSLAX46Y46*%
G04 Gerber Fmt 4.6, Leading zero omitted, Abs format (unit mm)*
G04 Created by KiCad (PCBNEW 9.0.1) date 2025-05-12 17:56:43*
%MOMM*%
%LPD*%
G01*
G04 APERTURE LIST*
G04 Aperture macros list*
%AMRoundRect*
0 Rectangle with rounded corners*
0 $1 Rounding radius*
0 $2 $3 $4 $5 $6 $7 $8 $9 X,Y pos of 4 corners*
0 Add a 4 corners polygon primitive as box body*
4,1,4,$2,$3,$4,$5,$6,$7,$8,$9,$2,$3,0*
0 Add four circle primitives for the rounded corners*
1,1,$1+$1,$2,$3*
1,1,$1+$1,$4,$5*
1,1,$1+$1,$6,$7*
1,1,$1+$1,$8,$9*
0 Add four rect primitives between the rounded corners*
20,1,$1+$1,$2,$3,$4,$5,0*
20,1,$1+$1,$4,$5,$6,$7,0*
20,1,$1+$1,$6,$7,$8,$9,0*
20,1,$1+$1,$8,$9,$2,$3,0*%
G04 Aperture macros list end*
%ADD10C,0.000000*%
%ADD11C,1.979600*%
%ADD12C,3.200000*%
%ADD13C,1.300000*%
%ADD14C,0.750000*%
%ADD15O,1.700000X1.100000*%
%ADD16O,2.200000X1.100000*%
%ADD17RoundRect,0.050000X2.000000X-0.750000X2.000000X0.750000X-2.000000X0.750000X-2.000000X-0.750000X0*%
%ADD18C,3.000000*%
%ADD19C,0.600000*%
%ADD20RoundRect,0.050000X-0.317500X-0.635000X0.317500X-0.635000X0.317500X0.635000X-0.317500X0.635000X0*%
%ADD21RoundRect,0.050000X-0.330200X-0.635000X0.330200X-0.635000X0.330200X0.635000X-0.330200X0.635000X0*%
%ADD22RoundRect,0.050000X-0.635000X0.330200X-0.635000X-0.330200X0.635000X-0.330200X0.635000X0.330200X0*%
%ADD23RoundRect,0.050000X0.635000X-0.330200X0.635000X0.330200X-0.635000X0.330200X-0.635000X-0.330200X0*%
%ADD24RoundRect,0.050000X0.330200X0.635000X-0.330200X0.635000X-0.330200X-0.635000X0.330200X-0.635000X0*%
%ADD25RoundRect,0.675000X0.000010X0.000010X-0.000010X0.000010X-0.000010X-0.000010X0.000010X-0.000010X0*%
%ADD26RoundRect,0.050000X-0.635000X0.317500X-0.635000X-0.317500X0.635000X-0.317500X0.635000X0.317500X0*%
G04 APERTURE END LIST*
D10*
%TO.C,PPS1*%
G36*
X50304700Y47384500D02*
G01*
X49796700Y47384500D01*
X49796700Y47865500D01*
X50304700Y47865500D01*
X50304700Y47384500D01*
G37*
G36*
X121924700Y47384500D02*
G01*
X121416700Y47384500D01*
X121416700Y47865500D01*
X121924700Y47865500D01*
X121924700Y47384500D01*
G37*
G36*
X50304700Y98684500D02*
G01*
X49796700Y98684500D01*
X49796700Y99165500D01*
X50304700Y99165500D01*
X50304700Y98684500D01*
G37*
G36*
X121924700Y98684500D02*
G01*
X121416700Y98684500D01*
X121416700Y99165500D01*
X121924700Y99165500D01*
X121924700Y98684500D01*
G37*
%TO.C,PWR1*%
G36*
X50304700Y49407100D02*
G01*
X49796700Y49407100D01*
X49796700Y49888100D01*
X50304700Y49888100D01*
X50304700Y49407100D01*
G37*
G36*
X121924700Y100707100D02*
G01*
X121416700Y100707100D01*
X121416700Y101188100D01*
X121924700Y101188100D01*
X121924700Y100707100D01*
G37*
G36*
X50304700Y100707100D02*
G01*
X49796700Y100707100D01*
X49796700Y101188100D01*
X50304700Y101188100D01*
X50304700Y100707100D01*
G37*
G36*
X121924700Y49407100D02*
G01*
X121416700Y49407100D01*
X121416700Y49888100D01*
X121924700Y49888100D01*
X121924700Y49407100D01*
G37*
%TO.C,SHLD2*%
G36*
X2145500Y19431000D02*
G01*
X1664500Y19431000D01*
X1664500Y19939000D01*
X2145500Y19939000D01*
X2145500Y19431000D01*
G37*
G36*
X73765500Y70731000D02*
G01*
X73284500Y70731000D01*
X73284500Y71239000D01*
X73765500Y71239000D01*
X73765500Y70731000D01*
G37*
G36*
X2145500Y70731000D02*
G01*
X1664500Y70731000D01*
X1664500Y71239000D01*
X2145500Y71239000D01*
X2145500Y70731000D01*
G37*
G36*
X73765500Y19431000D02*
G01*
X73284500Y19431000D01*
X73284500Y19939000D01*
X73765500Y19939000D01*
X73765500Y19431000D01*
G37*
%TO.C,RTK1*%
G36*
X50304700Y43320500D02*
G01*
X49796700Y43320500D01*
X49796700Y43801500D01*
X50304700Y43801500D01*
X50304700Y43320500D01*
G37*
G36*
X50304700Y94620500D02*
G01*
X49796700Y94620500D01*
X49796700Y95101500D01*
X50304700Y95101500D01*
X50304700Y94620500D01*
G37*
G36*
X121924700Y94620500D02*
G01*
X121416700Y94620500D01*
X121416700Y95101500D01*
X121924700Y95101500D01*
X121924700Y94620500D01*
G37*
G36*
X121924700Y43320500D02*
G01*
X121416700Y43320500D01*
X121416700Y43801500D01*
X121924700Y43801500D01*
X121924700Y43320500D01*
G37*
%TO.C,VOUT2*%
G36*
X60819500Y19316700D02*
G01*
X60338500Y19316700D01*
X60338500Y19824700D01*
X60819500Y19824700D01*
X60819500Y19316700D01*
G37*
G36*
X132439500Y19316700D02*
G01*
X131958500Y19316700D01*
X131958500Y19824700D01*
X132439500Y19824700D01*
X132439500Y19316700D01*
G37*
G36*
X60819500Y70616700D02*
G01*
X60338500Y70616700D01*
X60338500Y71124700D01*
X60819500Y71124700D01*
X60819500Y70616700D01*
G37*
G36*
X132439500Y70616700D02*
G01*
X131958500Y70616700D01*
X131958500Y71124700D01*
X132439500Y71124700D01*
X132439500Y70616700D01*
G37*
%TO.C,SHLD1*%
G36*
X2145500Y30861000D02*
G01*
X1664500Y30861000D01*
X1664500Y31369000D01*
X2145500Y31369000D01*
X2145500Y30861000D01*
G37*
G36*
X2145500Y82161000D02*
G01*
X1664500Y82161000D01*
X1664500Y82669000D01*
X2145500Y82669000D01*
X2145500Y82161000D01*
G37*
G36*
X73765500Y30861000D02*
G01*
X73284500Y30861000D01*
X73284500Y31369000D01*
X73765500Y31369000D01*
X73765500Y30861000D01*
G37*
G36*
X73765500Y82161000D02*
G01*
X73284500Y82161000D01*
X73284500Y82669000D01*
X73765500Y82669000D01*
X73765500Y82161000D01*
G37*
%TO.C,VBACKUP.1*%
G36*
X26274700Y32144500D02*
G01*
X25766700Y32144500D01*
X25766700Y32625500D01*
X26274700Y32625500D01*
X26274700Y32144500D01*
G37*
G36*
X97894700Y83444500D02*
G01*
X97386700Y83444500D01*
X97386700Y83925500D01*
X97894700Y83925500D01*
X97894700Y83444500D01*
G37*
G36*
X97894700Y32144500D02*
G01*
X97386700Y32144500D01*
X97386700Y32625500D01*
X97894700Y32625500D01*
X97894700Y32144500D01*
G37*
G36*
X26274700Y83444500D02*
G01*
X25766700Y83444500D01*
X25766700Y83925500D01*
X26274700Y83925500D01*
X26274700Y83444500D01*
G37*
%TO.C,JP1*%
G36*
X44704000Y43091100D02*
G01*
X44196000Y43091100D01*
X44196000Y44538900D01*
X44704000Y44538900D01*
X44704000Y43091100D01*
G37*
G36*
X116324000Y94391100D02*
G01*
X115816000Y94391100D01*
X115816000Y95838900D01*
X116324000Y95838900D01*
X116324000Y94391100D01*
G37*
G36*
X44704000Y94391100D02*
G01*
X44196000Y94391100D01*
X44196000Y95838900D01*
X44704000Y95838900D01*
X44704000Y94391100D01*
G37*
G36*
X116324000Y43091100D02*
G01*
X115816000Y43091100D01*
X115816000Y44538900D01*
X116324000Y44538900D01*
X116324000Y43091100D01*
G37*
%TO.C,VOUT1*%
G36*
X60819500Y32016700D02*
G01*
X60338500Y32016700D01*
X60338500Y32524700D01*
X60819500Y32524700D01*
X60819500Y32016700D01*
G37*
G36*
X132439500Y32016700D02*
G01*
X131958500Y32016700D01*
X131958500Y32524700D01*
X132439500Y32524700D01*
X132439500Y32016700D01*
G37*
G36*
X60819500Y83316700D02*
G01*
X60338500Y83316700D01*
X60338500Y83824700D01*
X60819500Y83824700D01*
X60819500Y83316700D01*
G37*
G36*
X132439500Y83316700D02*
G01*
X131958500Y83316700D01*
X131958500Y83824700D01*
X132439500Y83824700D01*
X132439500Y83316700D01*
G37*
%TO.C,PVT1*%
G36*
X50304700Y45352500D02*
G01*
X49796700Y45352500D01*
X49796700Y45833500D01*
X50304700Y45833500D01*
X50304700Y45352500D01*
G37*
G36*
X121924700Y96652500D02*
G01*
X121416700Y96652500D01*
X121416700Y97133500D01*
X121924700Y97133500D01*
X121924700Y96652500D01*
G37*
G36*
X50304700Y96652500D02*
G01*
X49796700Y96652500D01*
X49796700Y97133500D01*
X50304700Y97133500D01*
X50304700Y96652500D01*
G37*
G36*
X121924700Y45352500D02*
G01*
X121416700Y45352500D01*
X121416700Y45833500D01*
X121924700Y45833500D01*
X121924700Y45352500D01*
G37*
%TD*%
D11*
%TO.C,J3*%
X10160000Y49530000D03*
X12700000Y49530000D03*
X15240000Y49530000D03*
X17780000Y49530000D03*
X20320000Y49530000D03*
X22860000Y49530000D03*
X25400000Y49530000D03*
X27940000Y49530000D03*
X30480000Y49530000D03*
X33020000Y49530000D03*
X35560000Y49530000D03*
X38100000Y49530000D03*
X40640000Y49530000D03*
X43180000Y49530000D03*
X45720000Y49530000D03*
%TD*%
%TO.C,J3*%
X81780000Y49530000D03*
X84320000Y49530000D03*
X86860000Y49530000D03*
X89400000Y49530000D03*
X91940000Y49530000D03*
X94480000Y49530000D03*
X97020000Y49530000D03*
X99560000Y49530000D03*
X102100000Y49530000D03*
X104640000Y49530000D03*
X107180000Y49530000D03*
X109720000Y49530000D03*
X112260000Y49530000D03*
X114800000Y49530000D03*
X117340000Y49530000D03*
%TD*%
%TO.C,J3*%
X10160000Y100830000D03*
X12700000Y100830000D03*
X15240000Y100830000D03*
X17780000Y100830000D03*
X20320000Y100830000D03*
X22860000Y100830000D03*
X25400000Y100830000D03*
X27940000Y100830000D03*
X30480000Y100830000D03*
X33020000Y100830000D03*
X35560000Y100830000D03*
X38100000Y100830000D03*
X40640000Y100830000D03*
X43180000Y100830000D03*
X45720000Y100830000D03*
%TD*%
%TO.C,J3*%
X81780000Y100830000D03*
X84320000Y100830000D03*
X86860000Y100830000D03*
X89400000Y100830000D03*
X91940000Y100830000D03*
X94480000Y100830000D03*
X97020000Y100830000D03*
X99560000Y100830000D03*
X102100000Y100830000D03*
X104640000Y100830000D03*
X107180000Y100830000D03*
X109720000Y100830000D03*
X112260000Y100830000D03*
X114800000Y100830000D03*
X117340000Y100830000D03*
%TD*%
D12*
%TO.C,ST4*%
X60960000Y2540000D03*
%TD*%
%TO.C,ST4*%
X132580000Y2540000D03*
%TD*%
%TO.C,ST4*%
X60960000Y53840000D03*
%TD*%
%TO.C,ST4*%
X132580000Y53840000D03*
%TD*%
D13*
%TO.C,J12*%
X52250000Y33400000D03*
X52250000Y17400000D03*
%TD*%
%TO.C,J12*%
X123870000Y84700000D03*
X123870000Y68700000D03*
%TD*%
%TO.C,J12*%
X123870000Y33400000D03*
X123870000Y17400000D03*
%TD*%
%TO.C,J12*%
X52250000Y84700000D03*
X52250000Y68700000D03*
%TD*%
D11*
%TO.C,J4*%
X10160000Y1270000D03*
X12700000Y1270000D03*
X15240000Y1270000D03*
X17780000Y1270000D03*
X20320000Y1270000D03*
X22860000Y1270000D03*
X25400000Y1270000D03*
X27940000Y1270000D03*
X30480000Y1270000D03*
X33020000Y1270000D03*
X35560000Y1270000D03*
X38100000Y1270000D03*
X40640000Y1270000D03*
X43180000Y1270000D03*
X45720000Y1270000D03*
X48260000Y1270000D03*
X50800000Y1270000D03*
X53340000Y1270000D03*
X55880000Y1270000D03*
%TD*%
%TO.C,J4*%
X81780000Y52570000D03*
X84320000Y52570000D03*
X86860000Y52570000D03*
X89400000Y52570000D03*
X91940000Y52570000D03*
X94480000Y52570000D03*
X97020000Y52570000D03*
X99560000Y52570000D03*
X102100000Y52570000D03*
X104640000Y52570000D03*
X107180000Y52570000D03*
X109720000Y52570000D03*
X112260000Y52570000D03*
X114800000Y52570000D03*
X117340000Y52570000D03*
X119880000Y52570000D03*
X122420000Y52570000D03*
X124960000Y52570000D03*
X127500000Y52570000D03*
%TD*%
%TO.C,J4*%
X10160000Y52570000D03*
X12700000Y52570000D03*
X15240000Y52570000D03*
X17780000Y52570000D03*
X20320000Y52570000D03*
X22860000Y52570000D03*
X25400000Y52570000D03*
X27940000Y52570000D03*
X30480000Y52570000D03*
X33020000Y52570000D03*
X35560000Y52570000D03*
X38100000Y52570000D03*
X40640000Y52570000D03*
X43180000Y52570000D03*
X45720000Y52570000D03*
X48260000Y52570000D03*
X50800000Y52570000D03*
X53340000Y52570000D03*
X55880000Y52570000D03*
%TD*%
%TO.C,J4*%
X81780000Y1270000D03*
X84320000Y1270000D03*
X86860000Y1270000D03*
X89400000Y1270000D03*
X91940000Y1270000D03*
X94480000Y1270000D03*
X97020000Y1270000D03*
X99560000Y1270000D03*
X102100000Y1270000D03*
X104640000Y1270000D03*
X107180000Y1270000D03*
X109720000Y1270000D03*
X112260000Y1270000D03*
X114800000Y1270000D03*
X117340000Y1270000D03*
X119880000Y1270000D03*
X122420000Y1270000D03*
X124960000Y1270000D03*
X127500000Y1270000D03*
%TD*%
D14*
%TO.C,J10*%
X4905000Y34005000D03*
X4905000Y28225000D03*
D15*
X1255000Y35433000D03*
D16*
X5435000Y35433000D03*
X5435000Y26797000D03*
D15*
X1255000Y26797000D03*
%TD*%
D14*
%TO.C,J10*%
X4905000Y85305000D03*
X4905000Y79525000D03*
D15*
X1255000Y86733000D03*
D16*
X5435000Y86733000D03*
X5435000Y78097000D03*
D15*
X1255000Y78097000D03*
%TD*%
D14*
%TO.C,J10*%
X76525000Y34005000D03*
X76525000Y28225000D03*
D15*
X72875000Y35433000D03*
D16*
X77055000Y35433000D03*
X77055000Y26797000D03*
D15*
X72875000Y26797000D03*
%TD*%
D14*
%TO.C,J10*%
X76525000Y85305000D03*
X76525000Y79525000D03*
D15*
X72875000Y86733000D03*
D16*
X77055000Y86733000D03*
X77055000Y78097000D03*
D15*
X72875000Y78097000D03*
%TD*%
D17*
%TO.C,J6*%
X2286000Y6350000D03*
X2286000Y11430000D03*
%TD*%
%TO.C,J6*%
X73906000Y6350000D03*
X73906000Y11430000D03*
%TD*%
%TO.C,J6*%
X2286000Y57650000D03*
X2286000Y62730000D03*
%TD*%
%TO.C,J6*%
X73906000Y57650000D03*
X73906000Y62730000D03*
%TD*%
%TO.C,J2*%
X2286000Y39370000D03*
X2286000Y44450000D03*
%TD*%
%TO.C,J2*%
X73906000Y90670000D03*
X73906000Y95750000D03*
%TD*%
%TO.C,J2*%
X73906000Y39370000D03*
X73906000Y44450000D03*
%TD*%
%TO.C,J2*%
X2286000Y90670000D03*
X2286000Y95750000D03*
%TD*%
D13*
%TO.C,J11*%
X16250000Y33400000D03*
X16250000Y17400000D03*
%TD*%
%TO.C,J11*%
X87870000Y84700000D03*
X87870000Y68700000D03*
%TD*%
%TO.C,J11*%
X16250000Y84700000D03*
X16250000Y68700000D03*
%TD*%
%TO.C,J11*%
X87870000Y33400000D03*
X87870000Y17400000D03*
%TD*%
D12*
%TO.C,ST5*%
X14750000Y39900000D03*
%TD*%
%TO.C,ST5*%
X14750000Y91200000D03*
%TD*%
%TO.C,ST5*%
X86370000Y39900000D03*
%TD*%
%TO.C,ST5*%
X86370000Y91200000D03*
%TD*%
%TO.C,ST3*%
X60960000Y48260000D03*
%TD*%
%TO.C,ST3*%
X60960000Y99560000D03*
%TD*%
%TO.C,ST3*%
X132580000Y48260000D03*
%TD*%
%TO.C,ST3*%
X132580000Y99560000D03*
%TD*%
D14*
%TO.C,J7*%
X4905000Y22575000D03*
X4905000Y16795000D03*
D15*
X1255000Y24003000D03*
D16*
X5435000Y24003000D03*
X5435000Y15367000D03*
D15*
X1255000Y15367000D03*
%TD*%
D14*
%TO.C,J7*%
X4905000Y73875000D03*
X4905000Y68095000D03*
D15*
X1255000Y75303000D03*
D16*
X5435000Y75303000D03*
X5435000Y66667000D03*
D15*
X1255000Y66667000D03*
%TD*%
D14*
%TO.C,J7*%
X76525000Y22575000D03*
X76525000Y16795000D03*
D15*
X72875000Y24003000D03*
D16*
X77055000Y24003000D03*
X77055000Y15367000D03*
D15*
X72875000Y15367000D03*
%TD*%
D14*
%TO.C,J7*%
X76525000Y73875000D03*
X76525000Y68095000D03*
D15*
X72875000Y75303000D03*
D16*
X77055000Y75303000D03*
X77055000Y66667000D03*
D15*
X72875000Y66667000D03*
%TD*%
D12*
%TO.C,ST6*%
X14750000Y10900000D03*
%TD*%
%TO.C,ST6*%
X86370000Y10900000D03*
%TD*%
%TO.C,ST6*%
X86370000Y62200000D03*
%TD*%
%TO.C,ST6*%
X14750000Y62200000D03*
%TD*%
%TO.C,ST8*%
X53750000Y10900000D03*
%TD*%
%TO.C,ST8*%
X53750000Y62200000D03*
%TD*%
%TO.C,ST8*%
X125370000Y10900000D03*
%TD*%
%TO.C,ST8*%
X125370000Y62200000D03*
%TD*%
%TO.C,ST1*%
X2540000Y48260000D03*
%TD*%
%TO.C,ST1*%
X2540000Y99560000D03*
%TD*%
%TO.C,ST1*%
X74160000Y99560000D03*
%TD*%
%TO.C,ST1*%
X74160000Y48260000D03*
%TD*%
%TO.C,ST7*%
X53750000Y39900000D03*
%TD*%
%TO.C,ST7*%
X125370000Y39900000D03*
%TD*%
%TO.C,ST7*%
X53750000Y91200000D03*
%TD*%
%TO.C,ST7*%
X125370000Y91200000D03*
%TD*%
%TO.C,ST2*%
X2540000Y2540000D03*
%TD*%
%TO.C,ST2*%
X74160000Y53840000D03*
%TD*%
%TO.C,ST2*%
X2540000Y53840000D03*
%TD*%
%TO.C,ST2*%
X74160000Y2540000D03*
%TD*%
D18*
%TO.C,*%
X-5620000Y-2087500D03*
%TD*%
D19*
%TO.C,FID3*%
X6350000Y49530000D03*
%TD*%
%TO.C,FID3*%
X77970000Y100830000D03*
%TD*%
%TO.C,FID3*%
X77970000Y49530000D03*
%TD*%
%TO.C,FID3*%
X6350000Y100830000D03*
%TD*%
D20*
%TO.C,CH342_EN.1*%
X31318200Y12700000D03*
X32131000Y12700000D03*
%TD*%
%TO.C,CH342_EN.1*%
X102938200Y64000000D03*
X103751000Y64000000D03*
%TD*%
%TO.C,CH342_EN.1*%
X31318200Y64000000D03*
X32131000Y64000000D03*
%TD*%
%TO.C,CH342_EN.1*%
X102938200Y12700000D03*
X103751000Y12700000D03*
%TD*%
D21*
%TO.C,PPS1*%
X49530000Y47625000D03*
X50571400Y47625000D03*
%TD*%
%TO.C,PPS1*%
X121150000Y47625000D03*
X122191400Y47625000D03*
%TD*%
%TO.C,PPS1*%
X49530000Y98925000D03*
X50571400Y98925000D03*
%TD*%
%TO.C,PPS1*%
X121150000Y98925000D03*
X122191400Y98925000D03*
%TD*%
%TO.C,PWR1*%
X49530000Y49647600D03*
X50571400Y49647600D03*
%TD*%
%TO.C,PWR1*%
X121150000Y100947600D03*
X122191400Y100947600D03*
%TD*%
%TO.C,PWR1*%
X49530000Y100947600D03*
X50571400Y100947600D03*
%TD*%
%TO.C,PWR1*%
X121150000Y49647600D03*
X122191400Y49647600D03*
%TD*%
D22*
%TO.C,SHLD2*%
X1905000Y20205700D03*
X1905000Y19164300D03*
%TD*%
%TO.C,SHLD2*%
X73525000Y71505700D03*
X73525000Y70464300D03*
%TD*%
%TO.C,SHLD2*%
X1905000Y71505700D03*
X1905000Y70464300D03*
%TD*%
%TO.C,SHLD2*%
X73525000Y20205700D03*
X73525000Y19164300D03*
%TD*%
D19*
%TO.C,FID2*%
X62230000Y6350000D03*
%TD*%
%TO.C,FID2*%
X62230000Y57650000D03*
%TD*%
%TO.C,FID2*%
X133850000Y6350000D03*
%TD*%
%TO.C,FID2*%
X133850000Y57650000D03*
%TD*%
D21*
%TO.C,RTK1*%
X49530000Y43561000D03*
X50571400Y43561000D03*
%TD*%
%TO.C,RTK1*%
X49530000Y94861000D03*
X50571400Y94861000D03*
%TD*%
%TO.C,RTK1*%
X121150000Y94861000D03*
X122191400Y94861000D03*
%TD*%
%TO.C,RTK1*%
X121150000Y43561000D03*
X122191400Y43561000D03*
%TD*%
D22*
%TO.C,VOUT2*%
X60579000Y20091400D03*
X60579000Y19050000D03*
D23*
X60579000Y18008600D03*
%TD*%
D22*
%TO.C,VOUT2*%
X132199000Y20091400D03*
X132199000Y19050000D03*
D23*
X132199000Y18008600D03*
%TD*%
D22*
%TO.C,VOUT2*%
X60579000Y71391400D03*
X60579000Y70350000D03*
D23*
X60579000Y69308600D03*
%TD*%
D22*
%TO.C,VOUT2*%
X132199000Y71391400D03*
X132199000Y70350000D03*
D23*
X132199000Y69308600D03*
%TD*%
D18*
%TO.C,*%
X-5620000Y104187500D03*
%TD*%
D22*
%TO.C,SHLD1*%
X1905000Y31635700D03*
X1905000Y30594300D03*
%TD*%
%TO.C,SHLD1*%
X1905000Y82935700D03*
X1905000Y81894300D03*
%TD*%
%TO.C,SHLD1*%
X73525000Y31635700D03*
X73525000Y30594300D03*
%TD*%
%TO.C,SHLD1*%
X73525000Y82935700D03*
X73525000Y81894300D03*
%TD*%
D24*
%TO.C,VBACKUP.1*%
X26541400Y32385000D03*
X25500000Y32385000D03*
%TD*%
%TO.C,VBACKUP.1*%
X98161400Y83685000D03*
X97120000Y83685000D03*
%TD*%
%TO.C,VBACKUP.1*%
X98161400Y32385000D03*
X97120000Y32385000D03*
%TD*%
%TO.C,VBACKUP.1*%
X26541400Y83685000D03*
X25500000Y83685000D03*
%TD*%
D11*
%TO.C,JP1*%
X43180000Y43815000D03*
D20*
X43942000Y43815000D03*
X44958000Y43815000D03*
D11*
X45720000Y43815000D03*
%TD*%
%TO.C,JP1*%
X114800000Y95115000D03*
D20*
X115562000Y95115000D03*
X116578000Y95115000D03*
D11*
X117340000Y95115000D03*
%TD*%
%TO.C,JP1*%
X43180000Y95115000D03*
D20*
X43942000Y95115000D03*
X44958000Y95115000D03*
D11*
X45720000Y95115000D03*
%TD*%
%TO.C,JP1*%
X114800000Y43815000D03*
D20*
X115562000Y43815000D03*
X116578000Y43815000D03*
D11*
X117340000Y43815000D03*
%TD*%
D25*
%TO.C,TP12*%
X30480000Y16510000D03*
%TD*%
%TO.C,TP12*%
X102100000Y67810000D03*
%TD*%
%TO.C,TP12*%
X30480000Y67810000D03*
%TD*%
%TO.C,TP12*%
X102100000Y16510000D03*
%TD*%
%TO.C,TP14*%
X10795000Y27305000D03*
%TD*%
%TO.C,TP14*%
X82415000Y78605000D03*
%TD*%
%TO.C,TP14*%
X82415000Y27305000D03*
%TD*%
%TO.C,TP14*%
X10795000Y78605000D03*
%TD*%
D26*
%TO.C,JP2*%
X7112000Y47802800D03*
X7112000Y46990000D03*
X7112000Y46177200D03*
%TD*%
%TO.C,JP2*%
X7112000Y99102800D03*
X7112000Y98290000D03*
X7112000Y97477200D03*
%TD*%
%TO.C,JP2*%
X78732000Y47802800D03*
X78732000Y46990000D03*
X78732000Y46177200D03*
%TD*%
%TO.C,JP2*%
X78732000Y99102800D03*
X78732000Y98290000D03*
X78732000Y97477200D03*
%TD*%
D18*
%TO.C,*%
X133120000Y104187500D03*
%TD*%
D22*
%TO.C,VOUT1*%
X60579000Y32791400D03*
X60579000Y31750000D03*
D23*
X60579000Y30708600D03*
%TD*%
D22*
%TO.C,VOUT1*%
X132199000Y32791400D03*
X132199000Y31750000D03*
D23*
X132199000Y30708600D03*
%TD*%
D22*
%TO.C,VOUT1*%
X60579000Y84091400D03*
X60579000Y83050000D03*
D23*
X60579000Y82008600D03*
%TD*%
D22*
%TO.C,VOUT1*%
X132199000Y84091400D03*
X132199000Y83050000D03*
D23*
X132199000Y82008600D03*
%TD*%
D25*
%TO.C,TP10*%
X8255000Y27305000D03*
%TD*%
%TO.C,TP10*%
X79875000Y78605000D03*
%TD*%
%TO.C,TP10*%
X8255000Y78605000D03*
%TD*%
%TO.C,TP10*%
X79875000Y27305000D03*
%TD*%
D21*
%TO.C,PVT1*%
X49530000Y45593000D03*
X50571400Y45593000D03*
%TD*%
%TO.C,PVT1*%
X121150000Y96893000D03*
X122191400Y96893000D03*
%TD*%
%TO.C,PVT1*%
X49530000Y96893000D03*
X50571400Y96893000D03*
%TD*%
%TO.C,PVT1*%
X121150000Y45593000D03*
X122191400Y45593000D03*
%TD*%
D25*
%TO.C,TP9*%
X30480000Y20320000D03*
%TD*%
%TO.C,TP9*%
X102100000Y71620000D03*
%TD*%
%TO.C,TP9*%
X102100000Y20320000D03*
%TD*%
%TO.C,TP9*%
X30480000Y71620000D03*
%TD*%
M02*
