%TF.GenerationSoftware,KiCad,Pcbnew,9.0.1*%
%TF.CreationDate,2025-04-22T18:40:20+01:00*%
%TF.ProjectId,SparkFun_GNSS_Flex_Breakout_panelized,53706172-6b46-4756-9e5f-474e53535f46,v02*%
%TF.SameCoordinates,Original*%
%TF.FileFunction,Soldermask,Top*%
%TF.FilePolarity,Negative*%
%FSLAX46Y46*%
G04 Gerber Fmt 4.6, Leading zero omitted, Abs format (unit mm)*
G04 Created by KiCad (PCBNEW 9.0.1) date 2025-04-22 18:40:20*
%MOMM*%
%LPD*%
G01*
G04 APERTURE LIST*
G04 Aperture macros list*
%AMRoundRect*
0 Rectangle with rounded corners*
0 $1 Rounding radius*
0 $2 $3 $4 $5 $6 $7 $8 $9 X,Y pos of 4 corners*
0 Add a 4 corners polygon primitive as box body*
4,1,4,$2,$3,$4,$5,$6,$7,$8,$9,$2,$3,0*
0 Add four circle primitives for the rounded corners*
1,1,$1+$1,$2,$3*
1,1,$1+$1,$4,$5*
1,1,$1+$1,$6,$7*
1,1,$1+$1,$8,$9*
0 Add four rect primitives between the rounded corners*
20,1,$1+$1,$2,$3,$4,$5,0*
20,1,$1+$1,$4,$5,$6,$7,0*
20,1,$1+$1,$6,$7,$8,$9,0*
20,1,$1+$1,$8,$9,$2,$3,0*%
G04 Aperture macros list end*
%ADD10RoundRect,0.087500X-0.375000X-0.087500X0.375000X-0.087500X0.375000X0.087500X-0.375000X0.087500X0*%
%ADD11RoundRect,0.087500X-0.087500X-0.375000X0.087500X-0.375000X0.087500X0.375000X-0.087500X0.375000X0*%
%ADD12RoundRect,0.050000X-1.350000X-1.350000X1.350000X-1.350000X1.350000X1.350000X-1.350000X1.350000X0*%
%ADD13RoundRect,0.250000X0.250000X0.275000X-0.250000X0.275000X-0.250000X-0.275000X0.250000X-0.275000X0*%
%ADD14RoundRect,0.050000X0.150000X0.350000X-0.150000X0.350000X-0.150000X-0.350000X0.150000X-0.350000X0*%
%ADD15RoundRect,0.050000X0.600000X-0.275000X0.600000X0.275000X-0.600000X0.275000X-0.600000X-0.275000X0*%
%ADD16RoundRect,0.050000X0.275000X0.600000X-0.275000X0.600000X-0.275000X-0.600000X0.275000X-0.600000X0*%
%ADD17RoundRect,0.050000X-0.150000X-0.350000X0.150000X-0.350000X0.150000X0.350000X-0.150000X0.350000X0*%
%ADD18RoundRect,0.250000X-0.250000X-0.275000X0.250000X-0.275000X0.250000X0.275000X-0.250000X0.275000X0*%
%ADD19RoundRect,0.225000X0.225000X0.300000X-0.225000X0.300000X-0.225000X-0.300000X0.225000X-0.300000X0*%
%ADD20C,1.979600*%
%ADD21RoundRect,0.050000X0.315000X0.415000X-0.315000X0.415000X-0.315000X-0.415000X0.315000X-0.415000X0*%
%ADD22C,3.200000*%
%ADD23C,1.300000*%
%ADD24RoundRect,0.050000X-1.375000X-0.450000X1.375000X-0.450000X1.375000X0.450000X-1.375000X0.450000X0*%
%ADD25RoundRect,0.225000X-0.300000X0.225000X-0.300000X-0.225000X0.300000X-0.225000X0.300000X0.225000X0*%
%ADD26C,0.600000*%
%ADD27RoundRect,0.050000X0.850000X-0.300000X0.850000X0.300000X-0.850000X0.300000X-0.850000X-0.300000X0*%
%ADD28RoundRect,0.050000X1.350000X-0.500000X1.350000X0.500000X-1.350000X0.500000X-1.350000X-0.500000X0*%
%ADD29RoundRect,0.225000X-0.225000X-0.300000X0.225000X-0.300000X0.225000X0.300000X-0.225000X0.300000X0*%
%ADD30C,0.750000*%
%ADD31RoundRect,0.050000X0.500000X-0.150000X0.500000X0.150000X-0.500000X0.150000X-0.500000X-0.150000X0*%
%ADD32RoundRect,0.050000X-0.500000X0.150000X-0.500000X-0.150000X0.500000X-0.150000X0.500000X0.150000X0*%
%ADD33RoundRect,0.050000X0.500000X-0.300000X0.500000X0.300000X-0.500000X0.300000X-0.500000X-0.300000X0*%
%ADD34RoundRect,0.050000X-0.500000X0.300000X-0.500000X-0.300000X0.500000X-0.300000X0.500000X0.300000X0*%
%ADD35O,1.700000X1.100000*%
%ADD36O,2.200000X1.100000*%
%ADD37RoundRect,0.165000X0.195000X-0.165000X0.195000X0.165000X-0.195000X0.165000X-0.195000X-0.165000X0*%
%ADD38RoundRect,0.050000X2.000000X-0.750000X2.000000X0.750000X-2.000000X0.750000X-2.000000X-0.750000X0*%
%ADD39RoundRect,0.050000X-0.200000X0.450000X-0.200000X-0.450000X0.200000X-0.450000X0.200000X0.450000X0*%
%ADD40RoundRect,0.250000X-0.275000X0.250000X-0.275000X-0.250000X0.275000X-0.250000X0.275000X0.250000X0*%
%ADD41RoundRect,0.243750X0.243750X0.281250X-0.243750X0.281250X-0.243750X-0.281250X0.243750X-0.281250X0*%
%ADD42C,3.000000*%
%ADD43RoundRect,0.250000X0.275000X-0.250000X0.275000X0.250000X-0.275000X0.250000X-0.275000X-0.250000X0*%
%ADD44RoundRect,0.050000X1.400000X-0.500000X1.400000X0.500000X-1.400000X0.500000X-1.400000X-0.500000X0*%
%ADD45RoundRect,0.165000X-0.195000X0.165000X-0.195000X-0.165000X0.195000X-0.165000X0.195000X0.165000X0*%
%ADD46RoundRect,0.050000X0.450000X0.150000X-0.450000X0.150000X-0.450000X-0.150000X0.450000X-0.150000X0*%
%ADD47RoundRect,0.050000X0.150000X-0.450000X0.150000X0.450000X-0.150000X0.450000X-0.150000X-0.450000X0*%
%ADD48RoundRect,0.050000X-0.450000X-0.150000X0.450000X-0.150000X0.450000X0.150000X-0.450000X0.150000X0*%
%ADD49RoundRect,0.050000X-0.150000X0.450000X-0.150000X-0.450000X0.150000X-0.450000X0.150000X0.450000X0*%
%ADD50RoundRect,0.050000X-0.800000X0.550000X-0.800000X-0.550000X0.800000X-0.550000X0.800000X0.550000X0*%
%ADD51RoundRect,0.050000X-0.350000X0.150000X-0.350000X-0.150000X0.350000X-0.150000X0.350000X0.150000X0*%
%ADD52RoundRect,0.225000X0.300000X-0.225000X0.300000X0.225000X-0.300000X0.225000X-0.300000X-0.225000X0*%
%ADD53RoundRect,0.050000X0.800000X-0.550000X0.800000X0.550000X-0.800000X0.550000X-0.800000X-0.550000X0*%
%ADD54RoundRect,0.050000X0.150000X-0.350000X0.150000X0.350000X-0.150000X0.350000X-0.150000X-0.350000X0*%
%ADD55RoundRect,0.050000X-1.175000X-0.800000X1.175000X-0.800000X1.175000X0.800000X-1.175000X0.800000X0*%
%ADD56RoundRect,0.050000X-0.300000X-0.775000X0.300000X-0.775000X0.300000X0.775000X-0.300000X0.775000X0*%
%ADD57RoundRect,0.050000X-0.600000X-1.000000X0.600000X-1.000000X0.600000X1.000000X-0.600000X1.000000X0*%
%ADD58RoundRect,0.050000X0.525000X0.500000X-0.525000X0.500000X-0.525000X-0.500000X0.525000X-0.500000X0*%
%ADD59RoundRect,0.050000X1.100000X0.425000X-1.100000X0.425000X-1.100000X-0.425000X1.100000X-0.425000X0*%
%ADD60RoundRect,0.050000X-0.250000X-0.500000X0.250000X-0.500000X0.250000X0.500000X-0.250000X0.500000X0*%
%ADD61RoundRect,0.050000X-0.475000X-0.600000X0.475000X-0.600000X0.475000X0.600000X-0.475000X0.600000X0*%
G04 APERTURE END LIST*
D10*
%TO.C,U2*%
X37788500Y19538000D03*
X37788500Y19038000D03*
X37788500Y18538000D03*
X37788500Y18038000D03*
X37788500Y17538000D03*
X37788500Y17038000D03*
D11*
X38501000Y16325500D03*
X39001000Y16325500D03*
X39501000Y16325500D03*
X40001000Y16325500D03*
X40501000Y16325500D03*
X41001000Y16325500D03*
D10*
X41713500Y17038000D03*
X41713500Y17538000D03*
X41713500Y18038000D03*
X41713500Y18538000D03*
X41713500Y19038000D03*
X41713500Y19538000D03*
D11*
X41001000Y20250500D03*
X40501000Y20250500D03*
X40001000Y20250500D03*
X39501000Y20250500D03*
X39001000Y20250500D03*
X38501000Y20250500D03*
D12*
X39751000Y18288000D03*
%TD*%
D10*
%TO.C,U2*%
X37788500Y70838000D03*
X37788500Y70338000D03*
X37788500Y69838000D03*
X37788500Y69338000D03*
X37788500Y68838000D03*
X37788500Y68338000D03*
D11*
X38501000Y67625500D03*
X39001000Y67625500D03*
X39501000Y67625500D03*
X40001000Y67625500D03*
X40501000Y67625500D03*
X41001000Y67625500D03*
D10*
X41713500Y68338000D03*
X41713500Y68838000D03*
X41713500Y69338000D03*
X41713500Y69838000D03*
X41713500Y70338000D03*
X41713500Y70838000D03*
D11*
X41001000Y71550500D03*
X40501000Y71550500D03*
X40001000Y71550500D03*
X39501000Y71550500D03*
X39001000Y71550500D03*
X38501000Y71550500D03*
D12*
X39751000Y69588000D03*
%TD*%
D10*
%TO.C,U2*%
X109408500Y70838000D03*
X109408500Y70338000D03*
X109408500Y69838000D03*
X109408500Y69338000D03*
X109408500Y68838000D03*
X109408500Y68338000D03*
D11*
X110121000Y67625500D03*
X110621000Y67625500D03*
X111121000Y67625500D03*
X111621000Y67625500D03*
X112121000Y67625500D03*
X112621000Y67625500D03*
D10*
X113333500Y68338000D03*
X113333500Y68838000D03*
X113333500Y69338000D03*
X113333500Y69838000D03*
X113333500Y70338000D03*
X113333500Y70838000D03*
D11*
X112621000Y71550500D03*
X112121000Y71550500D03*
X111621000Y71550500D03*
X111121000Y71550500D03*
X110621000Y71550500D03*
X110121000Y71550500D03*
D12*
X111371000Y69588000D03*
%TD*%
D10*
%TO.C,U2*%
X109408500Y19538000D03*
X109408500Y19038000D03*
X109408500Y18538000D03*
X109408500Y18038000D03*
X109408500Y17538000D03*
X109408500Y17038000D03*
D11*
X110121000Y16325500D03*
X110621000Y16325500D03*
X111121000Y16325500D03*
X111621000Y16325500D03*
X112121000Y16325500D03*
X112621000Y16325500D03*
D10*
X113333500Y17038000D03*
X113333500Y17538000D03*
X113333500Y18038000D03*
X113333500Y18538000D03*
X113333500Y19038000D03*
X113333500Y19538000D03*
D11*
X112621000Y20250500D03*
X112121000Y20250500D03*
X111621000Y20250500D03*
X111121000Y20250500D03*
X110621000Y20250500D03*
X110121000Y20250500D03*
D12*
X111371000Y18288000D03*
%TD*%
D13*
%TO.C,C22*%
X36983000Y30734000D03*
X35433000Y30734000D03*
%TD*%
%TO.C,C22*%
X108603000Y30734000D03*
X107053000Y30734000D03*
%TD*%
%TO.C,C22*%
X108603000Y82034000D03*
X107053000Y82034000D03*
%TD*%
%TO.C,C22*%
X36983000Y82034000D03*
X35433000Y82034000D03*
%TD*%
D14*
%TO.C,D7*%
X45100000Y47155000D03*
X44450000Y47155000D03*
X43800000Y47155000D03*
X43800000Y45555000D03*
X45100000Y45555000D03*
%TD*%
%TO.C,D7*%
X45100000Y98455000D03*
X44450000Y98455000D03*
X43800000Y98455000D03*
X43800000Y96855000D03*
X45100000Y96855000D03*
%TD*%
%TO.C,D7*%
X116720000Y98455000D03*
X116070000Y98455000D03*
X115420000Y98455000D03*
X115420000Y96855000D03*
X116720000Y96855000D03*
%TD*%
%TO.C,D7*%
X116720000Y47155000D03*
X116070000Y47155000D03*
X115420000Y47155000D03*
X115420000Y45555000D03*
X116720000Y45555000D03*
%TD*%
D15*
%TO.C,D17*%
X29875100Y17465000D03*
X29875100Y18415000D03*
X29875100Y19365000D03*
X27274900Y19365000D03*
X27275000Y18415000D03*
X27274900Y17465000D03*
%TD*%
%TO.C,D17*%
X101495100Y17465000D03*
X101495100Y18415000D03*
X101495100Y19365000D03*
X98894900Y19365000D03*
X98895000Y18415000D03*
X98894900Y17465000D03*
%TD*%
%TO.C,D17*%
X29875100Y68765000D03*
X29875100Y69715000D03*
X29875100Y70665000D03*
X27274900Y70665000D03*
X27275000Y69715000D03*
X27274900Y68765000D03*
%TD*%
%TO.C,D17*%
X101495100Y68765000D03*
X101495100Y69715000D03*
X101495100Y70665000D03*
X98894900Y70665000D03*
X98895000Y69715000D03*
X98894900Y68765000D03*
%TD*%
D16*
%TO.C,U1*%
X37150000Y36860100D03*
X36200000Y36860100D03*
X35250000Y36860100D03*
X35250000Y34259900D03*
X37150000Y34259900D03*
%TD*%
%TO.C,U1*%
X108770000Y88160100D03*
X107820000Y88160100D03*
X106870000Y88160100D03*
X106870000Y85559900D03*
X108770000Y85559900D03*
%TD*%
%TO.C,U1*%
X37150000Y88160100D03*
X36200000Y88160100D03*
X35250000Y88160100D03*
X35250000Y85559900D03*
X37150000Y85559900D03*
%TD*%
%TO.C,U1*%
X108770000Y36860100D03*
X107820000Y36860100D03*
X106870000Y36860100D03*
X106870000Y34259900D03*
X108770000Y34259900D03*
%TD*%
D17*
%TO.C,D13*%
X23480000Y3645000D03*
X24130000Y3645000D03*
X24780000Y3645000D03*
X24780000Y5245000D03*
X23480000Y5245000D03*
%TD*%
%TO.C,D13*%
X95100000Y54945000D03*
X95750000Y54945000D03*
X96400000Y54945000D03*
X96400000Y56545000D03*
X95100000Y56545000D03*
%TD*%
%TO.C,D13*%
X23480000Y54945000D03*
X24130000Y54945000D03*
X24780000Y54945000D03*
X24780000Y56545000D03*
X23480000Y56545000D03*
%TD*%
%TO.C,D13*%
X95100000Y3645000D03*
X95750000Y3645000D03*
X96400000Y3645000D03*
X96400000Y5245000D03*
X95100000Y5245000D03*
%TD*%
D18*
%TO.C,C17*%
X43688000Y33400000D03*
X45238000Y33400000D03*
%TD*%
%TO.C,C17*%
X43688000Y84700000D03*
X45238000Y84700000D03*
%TD*%
%TO.C,C17*%
X115308000Y33400000D03*
X116858000Y33400000D03*
%TD*%
%TO.C,C17*%
X115308000Y84700000D03*
X116858000Y84700000D03*
%TD*%
D13*
%TO.C,C1*%
X49670000Y40005000D03*
X48120000Y40005000D03*
%TD*%
%TO.C,C1*%
X121290000Y40005000D03*
X119740000Y40005000D03*
%TD*%
%TO.C,C1*%
X121290000Y91305000D03*
X119740000Y91305000D03*
%TD*%
%TO.C,C1*%
X49670000Y91305000D03*
X48120000Y91305000D03*
%TD*%
D14*
%TO.C,D1*%
X27066000Y28550000D03*
X26416000Y28550000D03*
X25766000Y28550000D03*
X25766000Y26950000D03*
X27066000Y26950000D03*
%TD*%
%TO.C,D1*%
X98686000Y28550000D03*
X98036000Y28550000D03*
X97386000Y28550000D03*
X97386000Y26950000D03*
X98686000Y26950000D03*
%TD*%
%TO.C,D1*%
X27066000Y79850000D03*
X26416000Y79850000D03*
X25766000Y79850000D03*
X25766000Y78250000D03*
X27066000Y78250000D03*
%TD*%
%TO.C,D1*%
X98686000Y79850000D03*
X98036000Y79850000D03*
X97386000Y79850000D03*
X97386000Y78250000D03*
X98686000Y78250000D03*
%TD*%
D19*
%TO.C,R9*%
X7937000Y46228000D03*
X6287000Y46228000D03*
%TD*%
%TO.C,R9*%
X79557000Y97528000D03*
X77907000Y97528000D03*
%TD*%
%TO.C,R9*%
X7937000Y97528000D03*
X6287000Y97528000D03*
%TD*%
%TO.C,R9*%
X79557000Y46228000D03*
X77907000Y46228000D03*
%TD*%
D20*
%TO.C,J3*%
X10160000Y49530000D03*
X12700000Y49530000D03*
X15240000Y49530000D03*
X17780000Y49530000D03*
X20320000Y49530000D03*
X22860000Y49530000D03*
X25400000Y49530000D03*
X27940000Y49530000D03*
X30480000Y49530000D03*
X33020000Y49530000D03*
X35560000Y49530000D03*
X38100000Y49530000D03*
X40640000Y49530000D03*
X43180000Y49530000D03*
X45720000Y49530000D03*
%TD*%
%TO.C,J3*%
X10160000Y100830000D03*
X12700000Y100830000D03*
X15240000Y100830000D03*
X17780000Y100830000D03*
X20320000Y100830000D03*
X22860000Y100830000D03*
X25400000Y100830000D03*
X27940000Y100830000D03*
X30480000Y100830000D03*
X33020000Y100830000D03*
X35560000Y100830000D03*
X38100000Y100830000D03*
X40640000Y100830000D03*
X43180000Y100830000D03*
X45720000Y100830000D03*
%TD*%
%TO.C,J3*%
X81780000Y100830000D03*
X84320000Y100830000D03*
X86860000Y100830000D03*
X89400000Y100830000D03*
X91940000Y100830000D03*
X94480000Y100830000D03*
X97020000Y100830000D03*
X99560000Y100830000D03*
X102100000Y100830000D03*
X104640000Y100830000D03*
X107180000Y100830000D03*
X109720000Y100830000D03*
X112260000Y100830000D03*
X114800000Y100830000D03*
X117340000Y100830000D03*
%TD*%
%TO.C,J3*%
X81780000Y49530000D03*
X84320000Y49530000D03*
X86860000Y49530000D03*
X89400000Y49530000D03*
X91940000Y49530000D03*
X94480000Y49530000D03*
X97020000Y49530000D03*
X99560000Y49530000D03*
X102100000Y49530000D03*
X104640000Y49530000D03*
X107180000Y49530000D03*
X109720000Y49530000D03*
X112260000Y49530000D03*
X114800000Y49530000D03*
X117340000Y49530000D03*
%TD*%
D21*
%TO.C,D19*%
X36710000Y43815000D03*
X34410000Y43815000D03*
%TD*%
%TO.C,D19*%
X108330000Y43815000D03*
X106030000Y43815000D03*
%TD*%
%TO.C,D19*%
X36710000Y95115000D03*
X34410000Y95115000D03*
%TD*%
%TO.C,D19*%
X108330000Y95115000D03*
X106030000Y95115000D03*
%TD*%
D22*
%TO.C,ST4*%
X60960000Y2540000D03*
%TD*%
%TO.C,ST4*%
X132580000Y53840000D03*
%TD*%
%TO.C,ST4*%
X60960000Y53840000D03*
%TD*%
%TO.C,ST4*%
X132580000Y2540000D03*
%TD*%
D23*
%TO.C,J12*%
X52250000Y33400000D03*
X52250000Y17400000D03*
D24*
X50125000Y34400000D03*
X54375000Y34400000D03*
X50125000Y32400000D03*
X54375000Y32400000D03*
X50125000Y30400000D03*
X54375000Y30400000D03*
X50125000Y28400000D03*
X54375000Y28400000D03*
X50125000Y26400000D03*
X54375000Y26400000D03*
X50125000Y24400000D03*
X54375000Y24400000D03*
X50125000Y22400000D03*
X54375000Y22400000D03*
X50125000Y20400000D03*
X54375000Y20400000D03*
X50125000Y18400000D03*
X54375000Y18400000D03*
X50125000Y16400000D03*
X54375000Y16400000D03*
%TD*%
D23*
%TO.C,J12*%
X123870000Y84700000D03*
X123870000Y68700000D03*
D24*
X121745000Y85700000D03*
X125995000Y85700000D03*
X121745000Y83700000D03*
X125995000Y83700000D03*
X121745000Y81700000D03*
X125995000Y81700000D03*
X121745000Y79700000D03*
X125995000Y79700000D03*
X121745000Y77700000D03*
X125995000Y77700000D03*
X121745000Y75700000D03*
X125995000Y75700000D03*
X121745000Y73700000D03*
X125995000Y73700000D03*
X121745000Y71700000D03*
X125995000Y71700000D03*
X121745000Y69700000D03*
X125995000Y69700000D03*
X121745000Y67700000D03*
X125995000Y67700000D03*
%TD*%
D23*
%TO.C,J12*%
X52250000Y84700000D03*
X52250000Y68700000D03*
D24*
X50125000Y85700000D03*
X54375000Y85700000D03*
X50125000Y83700000D03*
X54375000Y83700000D03*
X50125000Y81700000D03*
X54375000Y81700000D03*
X50125000Y79700000D03*
X54375000Y79700000D03*
X50125000Y77700000D03*
X54375000Y77700000D03*
X50125000Y75700000D03*
X54375000Y75700000D03*
X50125000Y73700000D03*
X54375000Y73700000D03*
X50125000Y71700000D03*
X54375000Y71700000D03*
X50125000Y69700000D03*
X54375000Y69700000D03*
X50125000Y67700000D03*
X54375000Y67700000D03*
%TD*%
D23*
%TO.C,J12*%
X123870000Y33400000D03*
X123870000Y17400000D03*
D24*
X121745000Y34400000D03*
X125995000Y34400000D03*
X121745000Y32400000D03*
X125995000Y32400000D03*
X121745000Y30400000D03*
X125995000Y30400000D03*
X121745000Y28400000D03*
X125995000Y28400000D03*
X121745000Y26400000D03*
X125995000Y26400000D03*
X121745000Y24400000D03*
X125995000Y24400000D03*
X121745000Y22400000D03*
X125995000Y22400000D03*
X121745000Y20400000D03*
X125995000Y20400000D03*
X121745000Y18400000D03*
X125995000Y18400000D03*
X121745000Y16400000D03*
X125995000Y16400000D03*
%TD*%
D25*
%TO.C,R4*%
X22606000Y28575000D03*
X22606000Y26925000D03*
%TD*%
%TO.C,R4*%
X94226000Y79875000D03*
X94226000Y78225000D03*
%TD*%
%TO.C,R4*%
X22606000Y79875000D03*
X22606000Y78225000D03*
%TD*%
%TO.C,R4*%
X94226000Y28575000D03*
X94226000Y26925000D03*
%TD*%
%TO.C,R20*%
X8255000Y37401000D03*
X8255000Y35751000D03*
%TD*%
%TO.C,R20*%
X8255000Y88701000D03*
X8255000Y87051000D03*
%TD*%
%TO.C,R20*%
X79875000Y37401000D03*
X79875000Y35751000D03*
%TD*%
%TO.C,R20*%
X79875000Y88701000D03*
X79875000Y87051000D03*
%TD*%
D26*
%TO.C,FID4*%
X62230000Y6350000D03*
%TD*%
%TO.C,FID4*%
X133850000Y6350000D03*
%TD*%
%TO.C,FID4*%
X62230000Y57650000D03*
%TD*%
%TO.C,FID4*%
X133850000Y57650000D03*
%TD*%
D20*
%TO.C,J4*%
X10160000Y1270000D03*
X12700000Y1270000D03*
X15240000Y1270000D03*
X17780000Y1270000D03*
X20320000Y1270000D03*
X22860000Y1270000D03*
X25400000Y1270000D03*
X27940000Y1270000D03*
X30480000Y1270000D03*
X33020000Y1270000D03*
X35560000Y1270000D03*
X38100000Y1270000D03*
X40640000Y1270000D03*
X43180000Y1270000D03*
X45720000Y1270000D03*
X48260000Y1270000D03*
X50800000Y1270000D03*
X53340000Y1270000D03*
X55880000Y1270000D03*
%TD*%
%TO.C,J4*%
X81780000Y1270000D03*
X84320000Y1270000D03*
X86860000Y1270000D03*
X89400000Y1270000D03*
X91940000Y1270000D03*
X94480000Y1270000D03*
X97020000Y1270000D03*
X99560000Y1270000D03*
X102100000Y1270000D03*
X104640000Y1270000D03*
X107180000Y1270000D03*
X109720000Y1270000D03*
X112260000Y1270000D03*
X114800000Y1270000D03*
X117340000Y1270000D03*
X119880000Y1270000D03*
X122420000Y1270000D03*
X124960000Y1270000D03*
X127500000Y1270000D03*
%TD*%
%TO.C,J4*%
X10160000Y52570000D03*
X12700000Y52570000D03*
X15240000Y52570000D03*
X17780000Y52570000D03*
X20320000Y52570000D03*
X22860000Y52570000D03*
X25400000Y52570000D03*
X27940000Y52570000D03*
X30480000Y52570000D03*
X33020000Y52570000D03*
X35560000Y52570000D03*
X38100000Y52570000D03*
X40640000Y52570000D03*
X43180000Y52570000D03*
X45720000Y52570000D03*
X48260000Y52570000D03*
X50800000Y52570000D03*
X53340000Y52570000D03*
X55880000Y52570000D03*
%TD*%
%TO.C,J4*%
X81780000Y52570000D03*
X84320000Y52570000D03*
X86860000Y52570000D03*
X89400000Y52570000D03*
X91940000Y52570000D03*
X94480000Y52570000D03*
X97020000Y52570000D03*
X99560000Y52570000D03*
X102100000Y52570000D03*
X104640000Y52570000D03*
X107180000Y52570000D03*
X109720000Y52570000D03*
X112260000Y52570000D03*
X114800000Y52570000D03*
X117340000Y52570000D03*
X119880000Y52570000D03*
X122420000Y52570000D03*
X124960000Y52570000D03*
X127500000Y52570000D03*
%TD*%
D27*
%TO.C,J5*%
X58420000Y15925000D03*
X58420000Y17175000D03*
X58420000Y18425000D03*
X58420000Y19675000D03*
X58420000Y20925000D03*
X58420000Y22175000D03*
D28*
X61620000Y14050000D03*
X61620000Y24050000D03*
%TD*%
D27*
%TO.C,J5*%
X58420000Y67225000D03*
X58420000Y68475000D03*
X58420000Y69725000D03*
X58420000Y70975000D03*
X58420000Y72225000D03*
X58420000Y73475000D03*
D28*
X61620000Y65350000D03*
X61620000Y75350000D03*
%TD*%
D27*
%TO.C,J5*%
X130040000Y67225000D03*
X130040000Y68475000D03*
X130040000Y69725000D03*
X130040000Y70975000D03*
X130040000Y72225000D03*
X130040000Y73475000D03*
D28*
X133240000Y65350000D03*
X133240000Y75350000D03*
%TD*%
D27*
%TO.C,J5*%
X130040000Y15925000D03*
X130040000Y17175000D03*
X130040000Y18425000D03*
X130040000Y19675000D03*
X130040000Y20925000D03*
X130040000Y22175000D03*
D28*
X133240000Y14050000D03*
X133240000Y24050000D03*
%TD*%
D25*
%TO.C,R1*%
X28575000Y28575000D03*
X28575000Y26925000D03*
%TD*%
%TO.C,R1*%
X28575000Y79875000D03*
X28575000Y78225000D03*
%TD*%
%TO.C,R1*%
X100195000Y28575000D03*
X100195000Y26925000D03*
%TD*%
%TO.C,R1*%
X100195000Y79875000D03*
X100195000Y78225000D03*
%TD*%
D26*
%TO.C,FID1*%
X6350000Y49530000D03*
%TD*%
%TO.C,FID1*%
X77970000Y100830000D03*
%TD*%
%TO.C,FID1*%
X77970000Y49530000D03*
%TD*%
%TO.C,FID1*%
X6350000Y100830000D03*
%TD*%
D29*
%TO.C,R8*%
X6287000Y47752000D03*
X7937000Y47752000D03*
%TD*%
%TO.C,R8*%
X6287000Y99052000D03*
X7937000Y99052000D03*
%TD*%
%TO.C,R8*%
X77907000Y99052000D03*
X79557000Y99052000D03*
%TD*%
%TO.C,R8*%
X77907000Y47752000D03*
X79557000Y47752000D03*
%TD*%
D19*
%TO.C,R12*%
X50863000Y48006000D03*
X49213000Y48006000D03*
%TD*%
%TO.C,R12*%
X122483000Y48006000D03*
X120833000Y48006000D03*
%TD*%
%TO.C,R12*%
X50863000Y99306000D03*
X49213000Y99306000D03*
%TD*%
%TO.C,R12*%
X122483000Y99306000D03*
X120833000Y99306000D03*
%TD*%
D30*
%TO.C,J10*%
X4905000Y34005000D03*
X4905000Y28225000D03*
D31*
X6010000Y32365000D03*
X6010000Y31365000D03*
D32*
X6010000Y30865000D03*
X6010000Y29865000D03*
X6010000Y29365000D03*
X6010000Y30365000D03*
D31*
X6010000Y31865000D03*
X6010000Y32865000D03*
D33*
X6010000Y34340000D03*
D34*
X6010000Y27890000D03*
D35*
X1255000Y35433000D03*
D36*
X5435000Y35433000D03*
X5435000Y26797000D03*
D35*
X1255000Y26797000D03*
D33*
X6010000Y33565000D03*
D34*
X6010000Y28665000D03*
%TD*%
D30*
%TO.C,J10*%
X76525000Y85305000D03*
X76525000Y79525000D03*
D31*
X77630000Y83665000D03*
X77630000Y82665000D03*
D32*
X77630000Y82165000D03*
X77630000Y81165000D03*
X77630000Y80665000D03*
X77630000Y81665000D03*
D31*
X77630000Y83165000D03*
X77630000Y84165000D03*
D33*
X77630000Y85640000D03*
D34*
X77630000Y79190000D03*
D35*
X72875000Y86733000D03*
D36*
X77055000Y86733000D03*
X77055000Y78097000D03*
D35*
X72875000Y78097000D03*
D33*
X77630000Y84865000D03*
D34*
X77630000Y79965000D03*
%TD*%
D30*
%TO.C,J10*%
X4905000Y85305000D03*
X4905000Y79525000D03*
D31*
X6010000Y83665000D03*
X6010000Y82665000D03*
D32*
X6010000Y82165000D03*
X6010000Y81165000D03*
X6010000Y80665000D03*
X6010000Y81665000D03*
D31*
X6010000Y83165000D03*
X6010000Y84165000D03*
D33*
X6010000Y85640000D03*
D34*
X6010000Y79190000D03*
D35*
X1255000Y86733000D03*
D36*
X5435000Y86733000D03*
X5435000Y78097000D03*
D35*
X1255000Y78097000D03*
D33*
X6010000Y84865000D03*
D34*
X6010000Y79965000D03*
%TD*%
D30*
%TO.C,J10*%
X76525000Y34005000D03*
X76525000Y28225000D03*
D31*
X77630000Y32365000D03*
X77630000Y31365000D03*
D32*
X77630000Y30865000D03*
X77630000Y29865000D03*
X77630000Y29365000D03*
X77630000Y30365000D03*
D31*
X77630000Y31865000D03*
X77630000Y32865000D03*
D33*
X77630000Y34340000D03*
D34*
X77630000Y27890000D03*
D35*
X72875000Y35433000D03*
D36*
X77055000Y35433000D03*
X77055000Y26797000D03*
D35*
X72875000Y26797000D03*
D33*
X77630000Y33565000D03*
D34*
X77630000Y28665000D03*
%TD*%
D13*
%TO.C,C21*%
X36983000Y32258000D03*
X35433000Y32258000D03*
%TD*%
%TO.C,C21*%
X108603000Y32258000D03*
X107053000Y32258000D03*
%TD*%
%TO.C,C21*%
X36983000Y83558000D03*
X35433000Y83558000D03*
%TD*%
%TO.C,C21*%
X108603000Y83558000D03*
X107053000Y83558000D03*
%TD*%
D19*
%TO.C,R7*%
X50863000Y46228000D03*
X49213000Y46228000D03*
%TD*%
%TO.C,R7*%
X122483000Y46228000D03*
X120833000Y46228000D03*
%TD*%
%TO.C,R7*%
X50863000Y97528000D03*
X49213000Y97528000D03*
%TD*%
%TO.C,R7*%
X122483000Y97528000D03*
X120833000Y97528000D03*
%TD*%
D37*
%TO.C,D9*%
X5715000Y40795000D03*
X5715000Y41755000D03*
%TD*%
%TO.C,D9*%
X77335000Y92095000D03*
X77335000Y93055000D03*
%TD*%
%TO.C,D9*%
X5715000Y92095000D03*
X5715000Y93055000D03*
%TD*%
%TO.C,D9*%
X77335000Y40795000D03*
X77335000Y41755000D03*
%TD*%
D38*
%TO.C,J6*%
X2286000Y8890000D03*
X2286000Y6350000D03*
X2286000Y11430000D03*
%TD*%
%TO.C,J6*%
X73906000Y8890000D03*
X73906000Y6350000D03*
X73906000Y11430000D03*
%TD*%
%TO.C,J6*%
X73906000Y60190000D03*
X73906000Y57650000D03*
X73906000Y62730000D03*
%TD*%
%TO.C,J6*%
X2286000Y60190000D03*
X2286000Y57650000D03*
X2286000Y62730000D03*
%TD*%
D17*
%TO.C,D12*%
X33640000Y3645000D03*
X34290000Y3645000D03*
X34940000Y3645000D03*
X34940000Y5245000D03*
X33640000Y5245000D03*
%TD*%
%TO.C,D12*%
X33640000Y54945000D03*
X34290000Y54945000D03*
X34940000Y54945000D03*
X34940000Y56545000D03*
X33640000Y56545000D03*
%TD*%
%TO.C,D12*%
X105260000Y3645000D03*
X105910000Y3645000D03*
X106560000Y3645000D03*
X106560000Y5245000D03*
X105260000Y5245000D03*
%TD*%
%TO.C,D12*%
X105260000Y54945000D03*
X105910000Y54945000D03*
X106560000Y54945000D03*
X106560000Y56545000D03*
X105260000Y56545000D03*
%TD*%
D25*
%TO.C,R2*%
X24257000Y28575000D03*
X24257000Y26925000D03*
%TD*%
%TO.C,R2*%
X24257000Y79875000D03*
X24257000Y78225000D03*
%TD*%
%TO.C,R2*%
X95877000Y28575000D03*
X95877000Y26925000D03*
%TD*%
%TO.C,R2*%
X95877000Y79875000D03*
X95877000Y78225000D03*
%TD*%
D39*
%TO.C,TR2*%
X9925000Y25615000D03*
X9925000Y23915000D03*
X9125000Y25615000D03*
X9125000Y23915000D03*
%TD*%
%TO.C,TR2*%
X81545000Y25615000D03*
X81545000Y23915000D03*
X80745000Y25615000D03*
X80745000Y23915000D03*
%TD*%
%TO.C,TR2*%
X9925000Y76915000D03*
X9925000Y75215000D03*
X9125000Y76915000D03*
X9125000Y75215000D03*
%TD*%
%TO.C,TR2*%
X81545000Y76915000D03*
X81545000Y75215000D03*
X80745000Y76915000D03*
X80745000Y75215000D03*
%TD*%
D40*
%TO.C,C8*%
X24257000Y25045000D03*
X24257000Y23495000D03*
%TD*%
%TO.C,C8*%
X95877000Y76345000D03*
X95877000Y74795000D03*
%TD*%
%TO.C,C8*%
X24257000Y76345000D03*
X24257000Y74795000D03*
%TD*%
%TO.C,C8*%
X95877000Y25045000D03*
X95877000Y23495000D03*
%TD*%
D38*
%TO.C,J2*%
X2286000Y41910000D03*
X2286000Y39370000D03*
X2286000Y44450000D03*
%TD*%
%TO.C,J2*%
X73906000Y93210000D03*
X73906000Y90670000D03*
X73906000Y95750000D03*
%TD*%
%TO.C,J2*%
X2286000Y93210000D03*
X2286000Y90670000D03*
X2286000Y95750000D03*
%TD*%
%TO.C,J2*%
X73906000Y41910000D03*
X73906000Y39370000D03*
X73906000Y44450000D03*
%TD*%
D21*
%TO.C,D22*%
X36710000Y40005000D03*
X34410000Y40005000D03*
%TD*%
%TO.C,D22*%
X36710000Y91305000D03*
X34410000Y91305000D03*
%TD*%
%TO.C,D22*%
X108330000Y40005000D03*
X106030000Y40005000D03*
%TD*%
%TO.C,D22*%
X108330000Y91305000D03*
X106030000Y91305000D03*
%TD*%
D23*
%TO.C,J11*%
X16250000Y33400000D03*
X16250000Y17400000D03*
D24*
X14125000Y34400000D03*
X18375000Y34400000D03*
X14125000Y32400000D03*
X18375000Y32400000D03*
X14125000Y30400000D03*
X18375000Y30400000D03*
X14125000Y28400000D03*
X18375000Y28400000D03*
X14125000Y26400000D03*
X18375000Y26400000D03*
X14125000Y24400000D03*
X18375000Y24400000D03*
X14125000Y22400000D03*
X18375000Y22400000D03*
X14125000Y20400000D03*
X18375000Y20400000D03*
X14125000Y18400000D03*
X18375000Y18400000D03*
X14125000Y16400000D03*
X18375000Y16400000D03*
%TD*%
D23*
%TO.C,J11*%
X87870000Y33400000D03*
X87870000Y17400000D03*
D24*
X85745000Y34400000D03*
X89995000Y34400000D03*
X85745000Y32400000D03*
X89995000Y32400000D03*
X85745000Y30400000D03*
X89995000Y30400000D03*
X85745000Y28400000D03*
X89995000Y28400000D03*
X85745000Y26400000D03*
X89995000Y26400000D03*
X85745000Y24400000D03*
X89995000Y24400000D03*
X85745000Y22400000D03*
X89995000Y22400000D03*
X85745000Y20400000D03*
X89995000Y20400000D03*
X85745000Y18400000D03*
X89995000Y18400000D03*
X85745000Y16400000D03*
X89995000Y16400000D03*
%TD*%
D23*
%TO.C,J11*%
X16250000Y84700000D03*
X16250000Y68700000D03*
D24*
X14125000Y85700000D03*
X18375000Y85700000D03*
X14125000Y83700000D03*
X18375000Y83700000D03*
X14125000Y81700000D03*
X18375000Y81700000D03*
X14125000Y79700000D03*
X18375000Y79700000D03*
X14125000Y77700000D03*
X18375000Y77700000D03*
X14125000Y75700000D03*
X18375000Y75700000D03*
X14125000Y73700000D03*
X18375000Y73700000D03*
X14125000Y71700000D03*
X18375000Y71700000D03*
X14125000Y69700000D03*
X18375000Y69700000D03*
X14125000Y67700000D03*
X18375000Y67700000D03*
%TD*%
D23*
%TO.C,J11*%
X87870000Y84700000D03*
X87870000Y68700000D03*
D24*
X85745000Y85700000D03*
X89995000Y85700000D03*
X85745000Y83700000D03*
X89995000Y83700000D03*
X85745000Y81700000D03*
X89995000Y81700000D03*
X85745000Y79700000D03*
X89995000Y79700000D03*
X85745000Y77700000D03*
X89995000Y77700000D03*
X85745000Y75700000D03*
X89995000Y75700000D03*
X85745000Y73700000D03*
X89995000Y73700000D03*
X85745000Y71700000D03*
X89995000Y71700000D03*
X85745000Y69700000D03*
X89995000Y69700000D03*
X85745000Y67700000D03*
X89995000Y67700000D03*
%TD*%
D41*
%TO.C,D2*%
X54127500Y49784000D03*
X52552500Y49784000D03*
%TD*%
%TO.C,D2*%
X125747500Y49784000D03*
X124172500Y49784000D03*
%TD*%
%TO.C,D2*%
X54127500Y101084000D03*
X52552500Y101084000D03*
%TD*%
%TO.C,D2*%
X125747500Y101084000D03*
X124172500Y101084000D03*
%TD*%
D42*
%TO.C,*%
X-5620000Y-2087500D03*
%TD*%
D43*
%TO.C,C13*%
X36195000Y23355000D03*
X36195000Y24905000D03*
%TD*%
%TO.C,C13*%
X107815000Y74655000D03*
X107815000Y76205000D03*
%TD*%
%TO.C,C13*%
X36195000Y74655000D03*
X36195000Y76205000D03*
%TD*%
%TO.C,C13*%
X107815000Y23355000D03*
X107815000Y24905000D03*
%TD*%
D22*
%TO.C,ST5*%
X14750000Y39900000D03*
%TD*%
%TO.C,ST5*%
X86370000Y91200000D03*
%TD*%
%TO.C,ST5*%
X14750000Y91200000D03*
%TD*%
%TO.C,ST5*%
X86370000Y39900000D03*
%TD*%
D17*
%TO.C,D14*%
X59675000Y9360000D03*
X60325000Y9360000D03*
X60975000Y9360000D03*
X60975000Y10960000D03*
X59675000Y10960000D03*
%TD*%
%TO.C,D14*%
X131295000Y60660000D03*
X131945000Y60660000D03*
X132595000Y60660000D03*
X132595000Y62260000D03*
X131295000Y62260000D03*
%TD*%
%TO.C,D14*%
X59675000Y60660000D03*
X60325000Y60660000D03*
X60975000Y60660000D03*
X60975000Y62260000D03*
X59675000Y62260000D03*
%TD*%
%TO.C,D14*%
X131295000Y9360000D03*
X131945000Y9360000D03*
X132595000Y9360000D03*
X132595000Y10960000D03*
X131295000Y10960000D03*
%TD*%
D40*
%TO.C,C19*%
X40132000Y36983000D03*
X40132000Y35433000D03*
%TD*%
%TO.C,C19*%
X111752000Y36983000D03*
X111752000Y35433000D03*
%TD*%
%TO.C,C19*%
X111752000Y88283000D03*
X111752000Y86733000D03*
%TD*%
%TO.C,C19*%
X40132000Y88283000D03*
X40132000Y86733000D03*
%TD*%
D13*
%TO.C,C24*%
X61100000Y38354000D03*
X59550000Y38354000D03*
%TD*%
%TO.C,C24*%
X132720000Y89654000D03*
X131170000Y89654000D03*
%TD*%
%TO.C,C24*%
X61100000Y89654000D03*
X59550000Y89654000D03*
%TD*%
%TO.C,C24*%
X132720000Y38354000D03*
X131170000Y38354000D03*
%TD*%
D42*
%TO.C,*%
X133120000Y104187500D03*
%TD*%
D19*
%TO.C,R6*%
X50863000Y49784000D03*
X49213000Y49784000D03*
%TD*%
%TO.C,R6*%
X50863000Y101084000D03*
X49213000Y101084000D03*
%TD*%
%TO.C,R6*%
X122483000Y49784000D03*
X120833000Y49784000D03*
%TD*%
%TO.C,R6*%
X122483000Y101084000D03*
X120833000Y101084000D03*
%TD*%
D22*
%TO.C,ST3*%
X60960000Y48260000D03*
%TD*%
%TO.C,ST3*%
X60960000Y99560000D03*
%TD*%
%TO.C,ST3*%
X132580000Y48260000D03*
%TD*%
%TO.C,ST3*%
X132580000Y99560000D03*
%TD*%
D44*
%TO.C,F1*%
X40005000Y40815000D03*
X40005000Y43815000D03*
%TD*%
%TO.C,F1*%
X111625000Y92115000D03*
X111625000Y95115000D03*
%TD*%
%TO.C,F1*%
X40005000Y92115000D03*
X40005000Y95115000D03*
%TD*%
%TO.C,F1*%
X111625000Y40815000D03*
X111625000Y43815000D03*
%TD*%
D27*
%TO.C,J13*%
X58420000Y28625000D03*
X58420000Y29875000D03*
X58420000Y31125000D03*
X58420000Y32375000D03*
X58420000Y33625000D03*
X58420000Y34875000D03*
D28*
X61620000Y26750000D03*
X61620000Y36750000D03*
%TD*%
D27*
%TO.C,J13*%
X58420000Y79925000D03*
X58420000Y81175000D03*
X58420000Y82425000D03*
X58420000Y83675000D03*
X58420000Y84925000D03*
X58420000Y86175000D03*
D28*
X61620000Y78050000D03*
X61620000Y88050000D03*
%TD*%
D27*
%TO.C,J13*%
X130040000Y28625000D03*
X130040000Y29875000D03*
X130040000Y31125000D03*
X130040000Y32375000D03*
X130040000Y33625000D03*
X130040000Y34875000D03*
D28*
X133240000Y26750000D03*
X133240000Y36750000D03*
%TD*%
D27*
%TO.C,J13*%
X130040000Y79925000D03*
X130040000Y81175000D03*
X130040000Y82425000D03*
X130040000Y83675000D03*
X130040000Y84925000D03*
X130040000Y86175000D03*
D28*
X133240000Y78050000D03*
X133240000Y88050000D03*
%TD*%
D40*
%TO.C,C9*%
X25781000Y25045000D03*
X25781000Y23495000D03*
%TD*%
%TO.C,C9*%
X25781000Y76345000D03*
X25781000Y74795000D03*
%TD*%
%TO.C,C9*%
X97401000Y25045000D03*
X97401000Y23495000D03*
%TD*%
%TO.C,C9*%
X97401000Y76345000D03*
X97401000Y74795000D03*
%TD*%
D17*
%TO.C,D10*%
X43800000Y3645000D03*
X44450000Y3645000D03*
X45100000Y3645000D03*
X45100000Y5245000D03*
X43800000Y5245000D03*
%TD*%
%TO.C,D10*%
X115420000Y54945000D03*
X116070000Y54945000D03*
X116720000Y54945000D03*
X116720000Y56545000D03*
X115420000Y56545000D03*
%TD*%
%TO.C,D10*%
X43800000Y54945000D03*
X44450000Y54945000D03*
X45100000Y54945000D03*
X45100000Y56545000D03*
X43800000Y56545000D03*
%TD*%
%TO.C,D10*%
X115420000Y3645000D03*
X116070000Y3645000D03*
X116720000Y3645000D03*
X116720000Y5245000D03*
X115420000Y5245000D03*
%TD*%
D40*
%TO.C,C7*%
X27305000Y25045000D03*
X27305000Y23495000D03*
%TD*%
%TO.C,C7*%
X98925000Y25045000D03*
X98925000Y23495000D03*
%TD*%
%TO.C,C7*%
X27305000Y76345000D03*
X27305000Y74795000D03*
%TD*%
%TO.C,C7*%
X98925000Y76345000D03*
X98925000Y74795000D03*
%TD*%
D45*
%TO.C,D20*%
X5715000Y10005000D03*
X5715000Y9045000D03*
%TD*%
%TO.C,D20*%
X77335000Y61305000D03*
X77335000Y60345000D03*
%TD*%
%TO.C,D20*%
X5715000Y61305000D03*
X5715000Y60345000D03*
%TD*%
%TO.C,D20*%
X77335000Y10005000D03*
X77335000Y9045000D03*
%TD*%
D46*
%TO.C,U5*%
X41251000Y12569000D03*
D47*
X40751000Y13569000D03*
X40251000Y13569000D03*
X39751000Y13569000D03*
X39251000Y13569000D03*
X38751000Y13569000D03*
D48*
X38251000Y12569000D03*
X38251000Y12069000D03*
D49*
X38751000Y11069000D03*
X39251000Y11069000D03*
X39751000Y11069000D03*
X40251000Y11069000D03*
X40751000Y11069000D03*
D46*
X41251000Y12069000D03*
D50*
X39751000Y12319000D03*
%TD*%
D46*
%TO.C,U5*%
X112871000Y12569000D03*
D47*
X112371000Y13569000D03*
X111871000Y13569000D03*
X111371000Y13569000D03*
X110871000Y13569000D03*
X110371000Y13569000D03*
D48*
X109871000Y12569000D03*
X109871000Y12069000D03*
D49*
X110371000Y11069000D03*
X110871000Y11069000D03*
X111371000Y11069000D03*
X111871000Y11069000D03*
X112371000Y11069000D03*
D46*
X112871000Y12069000D03*
D50*
X111371000Y12319000D03*
%TD*%
D46*
%TO.C,U5*%
X112871000Y63869000D03*
D47*
X112371000Y64869000D03*
X111871000Y64869000D03*
X111371000Y64869000D03*
X110871000Y64869000D03*
X110371000Y64869000D03*
D48*
X109871000Y63869000D03*
X109871000Y63369000D03*
D49*
X110371000Y62369000D03*
X110871000Y62369000D03*
X111371000Y62369000D03*
X111871000Y62369000D03*
X112371000Y62369000D03*
D46*
X112871000Y63369000D03*
D50*
X111371000Y63619000D03*
%TD*%
D46*
%TO.C,U5*%
X41251000Y63869000D03*
D47*
X40751000Y64869000D03*
X40251000Y64869000D03*
X39751000Y64869000D03*
X39251000Y64869000D03*
X38751000Y64869000D03*
D48*
X38251000Y63869000D03*
X38251000Y63369000D03*
D49*
X38751000Y62369000D03*
X39251000Y62369000D03*
X39751000Y62369000D03*
X40251000Y62369000D03*
X40751000Y62369000D03*
D46*
X41251000Y63369000D03*
D50*
X39751000Y63619000D03*
%TD*%
D30*
%TO.C,J7*%
X4905000Y22575000D03*
X4905000Y16795000D03*
D31*
X6010000Y20935000D03*
X6010000Y19935000D03*
D32*
X6010000Y19435000D03*
X6010000Y18435000D03*
X6010000Y17935000D03*
X6010000Y18935000D03*
D31*
X6010000Y20435000D03*
X6010000Y21435000D03*
D33*
X6010000Y22910000D03*
D34*
X6010000Y16460000D03*
D35*
X1255000Y24003000D03*
D36*
X5435000Y24003000D03*
X5435000Y15367000D03*
D35*
X1255000Y15367000D03*
D33*
X6010000Y22135000D03*
D34*
X6010000Y17235000D03*
%TD*%
D30*
%TO.C,J7*%
X76525000Y73875000D03*
X76525000Y68095000D03*
D31*
X77630000Y72235000D03*
X77630000Y71235000D03*
D32*
X77630000Y70735000D03*
X77630000Y69735000D03*
X77630000Y69235000D03*
X77630000Y70235000D03*
D31*
X77630000Y71735000D03*
X77630000Y72735000D03*
D33*
X77630000Y74210000D03*
D34*
X77630000Y67760000D03*
D35*
X72875000Y75303000D03*
D36*
X77055000Y75303000D03*
X77055000Y66667000D03*
D35*
X72875000Y66667000D03*
D33*
X77630000Y73435000D03*
D34*
X77630000Y68535000D03*
%TD*%
D30*
%TO.C,J7*%
X76525000Y22575000D03*
X76525000Y16795000D03*
D31*
X77630000Y20935000D03*
X77630000Y19935000D03*
D32*
X77630000Y19435000D03*
X77630000Y18435000D03*
X77630000Y17935000D03*
X77630000Y18935000D03*
D31*
X77630000Y20435000D03*
X77630000Y21435000D03*
D33*
X77630000Y22910000D03*
D34*
X77630000Y16460000D03*
D35*
X72875000Y24003000D03*
D36*
X77055000Y24003000D03*
X77055000Y15367000D03*
D35*
X72875000Y15367000D03*
D33*
X77630000Y22135000D03*
D34*
X77630000Y17235000D03*
%TD*%
D30*
%TO.C,J7*%
X4905000Y73875000D03*
X4905000Y68095000D03*
D31*
X6010000Y72235000D03*
X6010000Y71235000D03*
D32*
X6010000Y70735000D03*
X6010000Y69735000D03*
X6010000Y69235000D03*
X6010000Y70235000D03*
D31*
X6010000Y71735000D03*
X6010000Y72735000D03*
D33*
X6010000Y74210000D03*
D34*
X6010000Y67760000D03*
D35*
X1255000Y75303000D03*
D36*
X5435000Y75303000D03*
X5435000Y66667000D03*
D35*
X1255000Y66667000D03*
D33*
X6010000Y73435000D03*
D34*
X6010000Y68535000D03*
%TD*%
D22*
%TO.C,ST6*%
X14750000Y10900000D03*
%TD*%
%TO.C,ST6*%
X86370000Y10900000D03*
%TD*%
%TO.C,ST6*%
X14750000Y62200000D03*
%TD*%
%TO.C,ST6*%
X86370000Y62200000D03*
%TD*%
D51*
%TO.C,D15*%
X9360000Y47386000D03*
X9360000Y46736000D03*
X9360000Y46086000D03*
X10960000Y46086000D03*
X10960000Y47386000D03*
%TD*%
%TO.C,D15*%
X9360000Y98686000D03*
X9360000Y98036000D03*
X9360000Y97386000D03*
X10960000Y97386000D03*
X10960000Y98686000D03*
%TD*%
%TO.C,D15*%
X80980000Y47386000D03*
X80980000Y46736000D03*
X80980000Y46086000D03*
X82580000Y46086000D03*
X82580000Y47386000D03*
%TD*%
%TO.C,D15*%
X80980000Y98686000D03*
X80980000Y98036000D03*
X80980000Y97386000D03*
X82580000Y97386000D03*
X82580000Y98686000D03*
%TD*%
D43*
%TO.C,C14*%
X43180000Y11544000D03*
X43180000Y13094000D03*
%TD*%
%TO.C,C14*%
X114800000Y62844000D03*
X114800000Y64394000D03*
%TD*%
%TO.C,C14*%
X43180000Y62844000D03*
X43180000Y64394000D03*
%TD*%
%TO.C,C14*%
X114800000Y11544000D03*
X114800000Y13094000D03*
%TD*%
D18*
%TO.C,C18*%
X43688000Y31900000D03*
X45238000Y31900000D03*
%TD*%
%TO.C,C18*%
X115308000Y31900000D03*
X116858000Y31900000D03*
%TD*%
%TO.C,C18*%
X43688000Y83200000D03*
X45238000Y83200000D03*
%TD*%
%TO.C,C18*%
X115308000Y83200000D03*
X116858000Y83200000D03*
%TD*%
D52*
%TO.C,R18*%
X9779000Y13399000D03*
X9779000Y15049000D03*
%TD*%
%TO.C,R18*%
X81399000Y64699000D03*
X81399000Y66349000D03*
%TD*%
%TO.C,R18*%
X81399000Y13399000D03*
X81399000Y15049000D03*
%TD*%
%TO.C,R18*%
X9779000Y64699000D03*
X9779000Y66349000D03*
%TD*%
D18*
%TO.C,C16*%
X43675000Y39000000D03*
X45225000Y39000000D03*
%TD*%
%TO.C,C16*%
X115295000Y39000000D03*
X116845000Y39000000D03*
%TD*%
%TO.C,C16*%
X115295000Y90300000D03*
X116845000Y90300000D03*
%TD*%
%TO.C,C16*%
X43675000Y90300000D03*
X45225000Y90300000D03*
%TD*%
D41*
%TO.C,D6*%
X54127500Y48006000D03*
X52552500Y48006000D03*
%TD*%
%TO.C,D6*%
X54127500Y99306000D03*
X52552500Y99306000D03*
%TD*%
%TO.C,D6*%
X125747500Y48006000D03*
X124172500Y48006000D03*
%TD*%
%TO.C,D6*%
X125747500Y99306000D03*
X124172500Y99306000D03*
%TD*%
D48*
%TO.C,U3*%
X38235000Y23880000D03*
D49*
X38735000Y22880000D03*
X39235000Y22880000D03*
X39735000Y22880000D03*
X40235000Y22880000D03*
X40735000Y22880000D03*
D46*
X41235000Y23880000D03*
X41235000Y24380000D03*
D47*
X40735000Y25380000D03*
X40235000Y25380000D03*
X39735000Y25380000D03*
X39235000Y25380000D03*
X38735000Y25380000D03*
D48*
X38235000Y24380000D03*
D53*
X39735000Y24130000D03*
%TD*%
D48*
%TO.C,U3*%
X38235000Y75180000D03*
D49*
X38735000Y74180000D03*
X39235000Y74180000D03*
X39735000Y74180000D03*
X40235000Y74180000D03*
X40735000Y74180000D03*
D46*
X41235000Y75180000D03*
X41235000Y75680000D03*
D47*
X40735000Y76680000D03*
X40235000Y76680000D03*
X39735000Y76680000D03*
X39235000Y76680000D03*
X38735000Y76680000D03*
D48*
X38235000Y75680000D03*
D53*
X39735000Y75430000D03*
%TD*%
D48*
%TO.C,U3*%
X109855000Y23880000D03*
D49*
X110355000Y22880000D03*
X110855000Y22880000D03*
X111355000Y22880000D03*
X111855000Y22880000D03*
X112355000Y22880000D03*
D46*
X112855000Y23880000D03*
X112855000Y24380000D03*
D47*
X112355000Y25380000D03*
X111855000Y25380000D03*
X111355000Y25380000D03*
X110855000Y25380000D03*
X110355000Y25380000D03*
D48*
X109855000Y24380000D03*
D53*
X111355000Y24130000D03*
%TD*%
D48*
%TO.C,U3*%
X109855000Y75180000D03*
D49*
X110355000Y74180000D03*
X110855000Y74180000D03*
X111355000Y74180000D03*
X111855000Y74180000D03*
X112355000Y74180000D03*
D46*
X112855000Y75180000D03*
X112855000Y75680000D03*
D47*
X112355000Y76680000D03*
X111855000Y76680000D03*
X111355000Y76680000D03*
X110855000Y76680000D03*
X110355000Y76680000D03*
D48*
X109855000Y75680000D03*
D53*
X111355000Y75430000D03*
%TD*%
D40*
%TO.C,C6*%
X18415000Y13869000D03*
X18415000Y12319000D03*
%TD*%
%TO.C,C6*%
X90035000Y65169000D03*
X90035000Y63619000D03*
%TD*%
%TO.C,C6*%
X90035000Y13869000D03*
X90035000Y12319000D03*
%TD*%
%TO.C,C6*%
X18415000Y65169000D03*
X18415000Y63619000D03*
%TD*%
D17*
%TO.C,D11*%
X48880000Y3645000D03*
X49530000Y3645000D03*
X50180000Y3645000D03*
X50180000Y5245000D03*
X48880000Y5245000D03*
%TD*%
%TO.C,D11*%
X120500000Y3645000D03*
X121150000Y3645000D03*
X121800000Y3645000D03*
X121800000Y5245000D03*
X120500000Y5245000D03*
%TD*%
%TO.C,D11*%
X120500000Y54945000D03*
X121150000Y54945000D03*
X121800000Y54945000D03*
X121800000Y56545000D03*
X120500000Y56545000D03*
%TD*%
%TO.C,D11*%
X48880000Y54945000D03*
X49530000Y54945000D03*
X50180000Y54945000D03*
X50180000Y56545000D03*
X48880000Y56545000D03*
%TD*%
D42*
%TO.C,*%
X-5620000Y104187500D03*
%TD*%
D13*
%TO.C,C23*%
X61100000Y12446000D03*
X59550000Y12446000D03*
%TD*%
%TO.C,C23*%
X61100000Y63746000D03*
X59550000Y63746000D03*
%TD*%
%TO.C,C23*%
X132720000Y63746000D03*
X131170000Y63746000D03*
%TD*%
%TO.C,C23*%
X132720000Y12446000D03*
X131170000Y12446000D03*
%TD*%
D52*
%TO.C,R17*%
X8255000Y13399000D03*
X8255000Y15049000D03*
%TD*%
%TO.C,R17*%
X79875000Y13399000D03*
X79875000Y15049000D03*
%TD*%
%TO.C,R17*%
X79875000Y64699000D03*
X79875000Y66349000D03*
%TD*%
%TO.C,R17*%
X8255000Y64699000D03*
X8255000Y66349000D03*
%TD*%
%TO.C,R3*%
X41656000Y35370000D03*
X41656000Y37020000D03*
%TD*%
%TO.C,R3*%
X113276000Y86670000D03*
X113276000Y88320000D03*
%TD*%
%TO.C,R3*%
X41656000Y86670000D03*
X41656000Y88320000D03*
%TD*%
%TO.C,R3*%
X113276000Y35370000D03*
X113276000Y37020000D03*
%TD*%
D41*
%TO.C,D3*%
X54127500Y46228000D03*
X52552500Y46228000D03*
%TD*%
%TO.C,D3*%
X125747500Y46228000D03*
X124172500Y46228000D03*
%TD*%
%TO.C,D3*%
X54127500Y97528000D03*
X52552500Y97528000D03*
%TD*%
%TO.C,D3*%
X125747500Y97528000D03*
X124172500Y97528000D03*
%TD*%
D40*
%TO.C,C10*%
X19939000Y13856000D03*
X19939000Y12306000D03*
%TD*%
%TO.C,C10*%
X19939000Y65156000D03*
X19939000Y63606000D03*
%TD*%
%TO.C,C10*%
X91559000Y13856000D03*
X91559000Y12306000D03*
%TD*%
%TO.C,C10*%
X91559000Y65156000D03*
X91559000Y63606000D03*
%TD*%
D22*
%TO.C,ST8*%
X53750000Y10900000D03*
%TD*%
%TO.C,ST8*%
X125370000Y10900000D03*
%TD*%
%TO.C,ST8*%
X53750000Y62200000D03*
%TD*%
%TO.C,ST8*%
X125370000Y62200000D03*
%TD*%
D13*
%TO.C,C5*%
X49670000Y38481000D03*
X48120000Y38481000D03*
%TD*%
%TO.C,C5*%
X121290000Y38481000D03*
X119740000Y38481000D03*
%TD*%
%TO.C,C5*%
X49670000Y89781000D03*
X48120000Y89781000D03*
%TD*%
%TO.C,C5*%
X121290000Y89781000D03*
X119740000Y89781000D03*
%TD*%
D16*
%TO.C,D21*%
X10475000Y30540100D03*
X9525000Y30540100D03*
X8575000Y30540100D03*
X8575000Y27939900D03*
X9525000Y27940000D03*
X10475000Y27939900D03*
%TD*%
%TO.C,D21*%
X10475000Y81840100D03*
X9525000Y81840100D03*
X8575000Y81840100D03*
X8575000Y79239900D03*
X9525000Y79240000D03*
X10475000Y79239900D03*
%TD*%
%TO.C,D21*%
X82095000Y30540100D03*
X81145000Y30540100D03*
X80195000Y30540100D03*
X80195000Y27939900D03*
X81145000Y27940000D03*
X82095000Y27939900D03*
%TD*%
%TO.C,D21*%
X82095000Y81840100D03*
X81145000Y81840100D03*
X80195000Y81840100D03*
X80195000Y79239900D03*
X81145000Y79240000D03*
X82095000Y79239900D03*
%TD*%
D40*
%TO.C,C20*%
X38608000Y36983000D03*
X38608000Y35433000D03*
%TD*%
%TO.C,C20*%
X38608000Y88283000D03*
X38608000Y86733000D03*
%TD*%
%TO.C,C20*%
X110228000Y36983000D03*
X110228000Y35433000D03*
%TD*%
%TO.C,C20*%
X110228000Y88283000D03*
X110228000Y86733000D03*
%TD*%
D41*
%TO.C,D5*%
X54127500Y44450000D03*
X52552500Y44450000D03*
%TD*%
%TO.C,D5*%
X125747500Y44450000D03*
X124172500Y44450000D03*
%TD*%
%TO.C,D5*%
X125747500Y95750000D03*
X124172500Y95750000D03*
%TD*%
%TO.C,D5*%
X54127500Y95750000D03*
X52552500Y95750000D03*
%TD*%
D21*
%TO.C,D18*%
X36710000Y41910000D03*
X34410000Y41910000D03*
%TD*%
%TO.C,D18*%
X108330000Y41910000D03*
X106030000Y41910000D03*
%TD*%
%TO.C,D18*%
X36710000Y93210000D03*
X34410000Y93210000D03*
%TD*%
%TO.C,D18*%
X108330000Y93210000D03*
X106030000Y93210000D03*
%TD*%
D54*
%TO.C,U4*%
X43475000Y86095000D03*
X44125000Y86095000D03*
X44775000Y86095000D03*
X45425000Y86095000D03*
X45425000Y88895000D03*
X44775000Y88895000D03*
X44125000Y88895000D03*
X43475000Y88895000D03*
D55*
X44450000Y87495000D03*
%TD*%
D54*
%TO.C,U4*%
X115095000Y34795000D03*
X115745000Y34795000D03*
X116395000Y34795000D03*
X117045000Y34795000D03*
X117045000Y37595000D03*
X116395000Y37595000D03*
X115745000Y37595000D03*
X115095000Y37595000D03*
D55*
X116070000Y36195000D03*
%TD*%
D54*
%TO.C,U4*%
X43475000Y34795000D03*
X44125000Y34795000D03*
X44775000Y34795000D03*
X45425000Y34795000D03*
X45425000Y37595000D03*
X44775000Y37595000D03*
X44125000Y37595000D03*
X43475000Y37595000D03*
D55*
X44450000Y36195000D03*
%TD*%
D54*
%TO.C,U4*%
X115095000Y86095000D03*
X115745000Y86095000D03*
X116395000Y86095000D03*
X117045000Y86095000D03*
X117045000Y88895000D03*
X116395000Y88895000D03*
X115745000Y88895000D03*
X115095000Y88895000D03*
D55*
X116070000Y87495000D03*
%TD*%
D40*
%TO.C,C2*%
X21463000Y13856000D03*
X21463000Y12306000D03*
%TD*%
%TO.C,C2*%
X21463000Y65156000D03*
X21463000Y63606000D03*
%TD*%
%TO.C,C2*%
X93083000Y13856000D03*
X93083000Y12306000D03*
%TD*%
%TO.C,C2*%
X93083000Y65156000D03*
X93083000Y63606000D03*
%TD*%
D22*
%TO.C,ST1*%
X2540000Y48260000D03*
%TD*%
%TO.C,ST1*%
X74160000Y99560000D03*
%TD*%
%TO.C,ST1*%
X2540000Y99560000D03*
%TD*%
%TO.C,ST1*%
X74160000Y48260000D03*
%TD*%
D18*
%TO.C,C15*%
X43675000Y40500000D03*
X45225000Y40500000D03*
%TD*%
%TO.C,C15*%
X43675000Y91800000D03*
X45225000Y91800000D03*
%TD*%
%TO.C,C15*%
X115295000Y91800000D03*
X116845000Y91800000D03*
%TD*%
%TO.C,C15*%
X115295000Y40500000D03*
X116845000Y40500000D03*
%TD*%
D56*
%TO.C,J14*%
X13740000Y44463000D03*
X14740000Y44463000D03*
X15740000Y44463000D03*
X16740000Y44463000D03*
D57*
X12440000Y46888000D03*
X18040000Y46888000D03*
%TD*%
D56*
%TO.C,J14*%
X85360000Y95763000D03*
X86360000Y95763000D03*
X87360000Y95763000D03*
X88360000Y95763000D03*
D57*
X84060000Y98188000D03*
X89660000Y98188000D03*
%TD*%
D56*
%TO.C,J14*%
X13740000Y95763000D03*
X14740000Y95763000D03*
X15740000Y95763000D03*
X16740000Y95763000D03*
D57*
X12440000Y98188000D03*
X18040000Y98188000D03*
%TD*%
D56*
%TO.C,J14*%
X85360000Y44463000D03*
X86360000Y44463000D03*
X87360000Y44463000D03*
X88360000Y44463000D03*
D57*
X84060000Y46888000D03*
X89660000Y46888000D03*
%TD*%
D58*
%TO.C,J9*%
X7365000Y41910000D03*
D59*
X8890000Y40535000D03*
X8890000Y43285000D03*
%TD*%
D58*
%TO.C,J9*%
X78985000Y93210000D03*
D59*
X80510000Y91835000D03*
X80510000Y94585000D03*
%TD*%
D58*
%TO.C,J9*%
X78985000Y41910000D03*
D59*
X80510000Y40535000D03*
X80510000Y43285000D03*
%TD*%
D58*
%TO.C,J9*%
X7365000Y93210000D03*
D59*
X8890000Y91835000D03*
X8890000Y94585000D03*
%TD*%
D60*
%TO.C,J1*%
X22185000Y36360000D03*
X23285000Y36360000D03*
X24385000Y36360000D03*
X25135000Y36360000D03*
X26585000Y36360000D03*
X27685000Y36360000D03*
X28785000Y36360000D03*
X29885000Y36360000D03*
X25835000Y36360000D03*
D61*
X31135000Y30160000D03*
X31135000Y34610000D03*
X20935000Y30160000D03*
X20935000Y34610000D03*
%TD*%
D60*
%TO.C,J1*%
X93805000Y36360000D03*
X94905000Y36360000D03*
X96005000Y36360000D03*
X96755000Y36360000D03*
X98205000Y36360000D03*
X99305000Y36360000D03*
X100405000Y36360000D03*
X101505000Y36360000D03*
X97455000Y36360000D03*
D61*
X102755000Y30160000D03*
X102755000Y34610000D03*
X92555000Y30160000D03*
X92555000Y34610000D03*
%TD*%
D60*
%TO.C,J1*%
X22185000Y87660000D03*
X23285000Y87660000D03*
X24385000Y87660000D03*
X25135000Y87660000D03*
X26585000Y87660000D03*
X27685000Y87660000D03*
X28785000Y87660000D03*
X29885000Y87660000D03*
X25835000Y87660000D03*
D61*
X31135000Y81460000D03*
X31135000Y85910000D03*
X20935000Y81460000D03*
X20935000Y85910000D03*
%TD*%
D60*
%TO.C,J1*%
X93805000Y87660000D03*
X94905000Y87660000D03*
X96005000Y87660000D03*
X96755000Y87660000D03*
X98205000Y87660000D03*
X99305000Y87660000D03*
X100405000Y87660000D03*
X101505000Y87660000D03*
X97455000Y87660000D03*
D61*
X102755000Y81460000D03*
X102755000Y85910000D03*
X92555000Y81460000D03*
X92555000Y85910000D03*
%TD*%
D13*
%TO.C,C4*%
X49670000Y36957000D03*
X48120000Y36957000D03*
%TD*%
%TO.C,C4*%
X121290000Y36957000D03*
X119740000Y36957000D03*
%TD*%
%TO.C,C4*%
X49670000Y88257000D03*
X48120000Y88257000D03*
%TD*%
%TO.C,C4*%
X121290000Y88257000D03*
X119740000Y88257000D03*
%TD*%
D58*
%TO.C,J8*%
X7365000Y8890000D03*
D59*
X8890000Y7515000D03*
X8890000Y10265000D03*
%TD*%
D58*
%TO.C,J8*%
X7365000Y60190000D03*
D59*
X8890000Y58815000D03*
X8890000Y61565000D03*
%TD*%
D58*
%TO.C,J8*%
X78985000Y60190000D03*
D59*
X80510000Y58815000D03*
X80510000Y61565000D03*
%TD*%
D58*
%TO.C,J8*%
X78985000Y8890000D03*
D59*
X80510000Y7515000D03*
X80510000Y10265000D03*
%TD*%
D25*
%TO.C,R5*%
X34671000Y24955000D03*
X34671000Y23305000D03*
%TD*%
%TO.C,R5*%
X106291000Y24955000D03*
X106291000Y23305000D03*
%TD*%
%TO.C,R5*%
X34671000Y76255000D03*
X34671000Y74605000D03*
%TD*%
%TO.C,R5*%
X106291000Y76255000D03*
X106291000Y74605000D03*
%TD*%
%TO.C,R19*%
X9779000Y37401000D03*
X9779000Y35751000D03*
%TD*%
%TO.C,R19*%
X81399000Y37401000D03*
X81399000Y35751000D03*
%TD*%
%TO.C,R19*%
X9779000Y88701000D03*
X9779000Y87051000D03*
%TD*%
%TO.C,R19*%
X81399000Y88701000D03*
X81399000Y87051000D03*
%TD*%
D13*
%TO.C,C11*%
X35446000Y16510000D03*
X33896000Y16510000D03*
%TD*%
%TO.C,C11*%
X107066000Y67810000D03*
X105516000Y67810000D03*
%TD*%
%TO.C,C11*%
X35446000Y67810000D03*
X33896000Y67810000D03*
%TD*%
%TO.C,C11*%
X107066000Y16510000D03*
X105516000Y16510000D03*
%TD*%
D14*
%TO.C,D8*%
X37480000Y47155000D03*
X36830000Y47155000D03*
X36180000Y47155000D03*
X36180000Y45555000D03*
X37480000Y45555000D03*
%TD*%
%TO.C,D8*%
X37480000Y98455000D03*
X36830000Y98455000D03*
X36180000Y98455000D03*
X36180000Y96855000D03*
X37480000Y96855000D03*
%TD*%
%TO.C,D8*%
X109100000Y98455000D03*
X108450000Y98455000D03*
X107800000Y98455000D03*
X107800000Y96855000D03*
X109100000Y96855000D03*
%TD*%
%TO.C,D8*%
X109100000Y47155000D03*
X108450000Y47155000D03*
X107800000Y47155000D03*
X107800000Y45555000D03*
X109100000Y45555000D03*
%TD*%
D13*
%TO.C,C12*%
X35446000Y14986000D03*
X33896000Y14986000D03*
%TD*%
%TO.C,C12*%
X35446000Y66286000D03*
X33896000Y66286000D03*
%TD*%
%TO.C,C12*%
X107066000Y66286000D03*
X105516000Y66286000D03*
%TD*%
%TO.C,C12*%
X107066000Y14986000D03*
X105516000Y14986000D03*
%TD*%
D14*
%TO.C,D16*%
X61102000Y41440000D03*
X60452000Y41440000D03*
X59802000Y41440000D03*
X59802000Y39840000D03*
X61102000Y39840000D03*
%TD*%
%TO.C,D16*%
X132722000Y92740000D03*
X132072000Y92740000D03*
X131422000Y92740000D03*
X131422000Y91140000D03*
X132722000Y91140000D03*
%TD*%
%TO.C,D16*%
X61102000Y92740000D03*
X60452000Y92740000D03*
X59802000Y92740000D03*
X59802000Y91140000D03*
X61102000Y91140000D03*
%TD*%
%TO.C,D16*%
X132722000Y41440000D03*
X132072000Y41440000D03*
X131422000Y41440000D03*
X131422000Y39840000D03*
X132722000Y39840000D03*
%TD*%
D22*
%TO.C,ST7*%
X53750000Y39900000D03*
%TD*%
%TO.C,ST7*%
X125370000Y39900000D03*
%TD*%
%TO.C,ST7*%
X53750000Y91200000D03*
%TD*%
%TO.C,ST7*%
X125370000Y91200000D03*
%TD*%
%TO.C,ST2*%
X2540000Y2540000D03*
%TD*%
%TO.C,ST2*%
X74160000Y53840000D03*
%TD*%
%TO.C,ST2*%
X2540000Y53840000D03*
%TD*%
%TO.C,ST2*%
X74160000Y2540000D03*
%TD*%
D19*
%TO.C,R11*%
X50863000Y44450000D03*
X49213000Y44450000D03*
%TD*%
%TO.C,R11*%
X50863000Y95750000D03*
X49213000Y95750000D03*
%TD*%
%TO.C,R11*%
X122483000Y44450000D03*
X120833000Y44450000D03*
%TD*%
%TO.C,R11*%
X122483000Y95750000D03*
X120833000Y95750000D03*
%TD*%
D20*
%TO.C,JP1*%
X43180000Y43815000D03*
X45720000Y43815000D03*
%TD*%
%TO.C,JP1*%
X114800000Y43815000D03*
X117340000Y43815000D03*
%TD*%
%TO.C,JP1*%
X43180000Y95115000D03*
X45720000Y95115000D03*
%TD*%
%TO.C,JP1*%
X114800000Y95115000D03*
X117340000Y95115000D03*
%TD*%
M02*
